<svg width="32" height="33" viewBox="0 0 32 33" fill="none" xmlns="http://www.w3.org/2000/svg">
<path d="M26.6667 22.8688H9.33335C8.62611 22.8688 7.94783 22.5663 7.44774 22.0277C6.94764 21.4891 6.66669 20.715 6.66669 19.997L5.33335 7.07394C5.33335 6.3123 5.0524 5.58184 4.55231 5.04328C4.05221 4.50471 3.37393 4.20215 2.66669 4.20215" stroke="white" stroke-linecap="round" stroke-linejoin="round"/>
<path d="M5.48992 8.20215H26.2565H28.0001L26.6666 16.2021L6.66658 17.5355" stroke="white" stroke-linecap="round" stroke-linejoin="round"/>
<path d="M22.6667 28.2022C24.1394 28.2022 25.3333 27.0083 25.3333 25.5356C25.3333 24.0628 24.1394 22.8689 22.6667 22.8689C21.1939 22.8689 20 24.0628 20 25.5356C20 27.0083 21.1939 28.2022 22.6667 28.2022Z" stroke="white" stroke-linecap="round" stroke-linejoin="round"/>
<path d="M12 28.2022C13.4728 28.2022 14.6667 27.0083 14.6667 25.5356C14.6667 24.0628 13.4728 22.8689 12 22.8689C10.5273 22.8689 9.33337 24.0628 9.33337 25.5356C9.33337 27.0083 10.5273 28.2022 12 28.2022Z" stroke="white" stroke-linecap="round" stroke-linejoin="round"/>
</svg>
