<svg width="22" height="20" viewBox="0 0 22 20" fill="none" xmlns="http://www.w3.org/2000/svg">
<path d="M10.8148 5.5V11.5M10.8148 19.5C6.26759 19.5 3.994 19.5 2.67968 18.5451C1.53327 17.7122 0.794116 16.4319 0.645995 15.0226C0.476177 13.4069 1.61297 11.438 3.88655 7.5C6.16014 3.56204 7.29693 1.59306 8.78107 0.932272C10.0756 0.355909 11.5539 0.355909 12.8484 0.932272C14.3326 1.59306 15.4694 3.56204 17.743 7.5C20.0165 11.438 21.1533 13.4069 20.9835 15.0226C20.8354 16.4319 20.0962 17.7122 18.9498 18.5451C17.6355 19.5 15.3619 19.5 10.8148 19.5Z" stroke="#CD3D3D" stroke-linecap="round"/>
<path d="M11.3147 14.5C11.3147 14.7761 11.0908 15 10.8147 15C10.5386 15 10.3147 14.7761 10.3147 14.5C10.3147 14.2239 10.5386 14 10.8147 14C11.0908 14 11.3147 14.2239 11.3147 14.5Z" stroke="#CD3D3D"/>
</svg>
