<svg width="32" height="32" viewBox="0 0 32 32" fill="none" xmlns="http://www.w3.org/2000/svg">
<path d="M2.66699 26.6667C2.66699 27.374 2.94794 28.0523 3.44804 28.5524C3.94814 29.0525 4.62641 29.3334 5.33366 29.3334H26.667C27.3742 29.3334 28.0525 29.0525 28.5526 28.5524C29.0527 28.0523 29.3337 27.374 29.3337 26.6667V10.6667L20.0003 17.3334V10.6667L10.667 17.3334V5.33341C10.667 4.62617 10.386 3.94789 9.88594 3.4478C9.38585 2.9477 8.70757 2.66675 8.00033 2.66675H5.33366C4.62641 2.66675 3.94814 2.9477 3.44804 3.4478C2.94794 3.94789 2.66699 4.62617 2.66699 5.33341V26.6667Z" stroke="#AA2624" stroke-width="2" stroke-linecap="round" stroke-linejoin="round"/>
<path d="M22.667 24H24.0003" stroke="#AA2624" stroke-width="2" stroke-linecap="round" stroke-linejoin="round"/>
<path d="M16 24H17.3333" stroke="#AA2624" stroke-width="2" stroke-linecap="round" stroke-linejoin="round"/>
<path d="M9.33301 24H10.6663" stroke="#AA2624" stroke-width="2" stroke-linecap="round" stroke-linejoin="round"/>
</svg>
