<svg width="32" height="32" viewBox="0 0 32 32" fill="none" xmlns="http://www.w3.org/2000/svg">
<path d="M18.667 23.9999V7.99992C18.667 7.29267 18.386 6.6144 17.8859 6.1143C17.3858 5.6142 16.7076 5.33325 16.0003 5.33325H5.33366C4.62641 5.33325 3.94814 5.6142 3.44804 6.1143C2.94794 6.6144 2.66699 7.29267 2.66699 7.99992V22.6666C2.66699 23.0202 2.80747 23.3593 3.05752 23.6094C3.30756 23.8594 3.6467 23.9999 4.00033 23.9999H6.66699" stroke="#AA2624" stroke-width="2" stroke-linecap="round" stroke-linejoin="round"/>
<path d="M25.3337 24.0001H28.0003C28.3539 24.0001 28.6931 23.8596 28.9431 23.6096C29.1932 23.3595 29.3337 23.0204 29.3337 22.6667V18.2934C29.3334 18.0137 29.2453 17.7411 29.0816 17.5143C28.9179 17.2874 28.6871 17.1178 28.4217 17.0294L25.8577 16.1747C25.6915 16.1193 25.538 16.0316 25.4057 15.9168C25.2735 15.8019 25.1652 15.6621 25.087 15.5054L23.035 11.4041C22.9243 11.1826 22.7542 10.9964 22.5437 10.8662C22.3332 10.7359 22.0905 10.6669 21.843 10.6667H18.667" stroke="#AA2624" stroke-width="2" stroke-linecap="round" stroke-linejoin="round"/>
<path d="M12 24H20" stroke="#AA2624" stroke-width="2" stroke-linecap="round" stroke-linejoin="round"/>
<path d="M22.6667 26.6666C24.1394 26.6666 25.3333 25.4727 25.3333 23.9999C25.3333 22.5272 24.1394 21.3333 22.6667 21.3333C21.1939 21.3333 20 22.5272 20 23.9999C20 25.4727 21.1939 26.6666 22.6667 26.6666Z" stroke="#AA2624" stroke-width="2" stroke-linecap="round" stroke-linejoin="round"/>
<path d="M9.33366 26.6666C10.8064 26.6666 12.0003 25.4727 12.0003 23.9999C12.0003 22.5272 10.8064 21.3333 9.33366 21.3333C7.8609 21.3333 6.66699 22.5272 6.66699 23.9999C6.66699 25.4727 7.8609 26.6666 9.33366 26.6666Z" stroke="#AA2624" stroke-width="2" stroke-linecap="round" stroke-linejoin="round"/>
</svg>
