<svg width="282" height="45" viewBox="0 0 282 45" fill="none" xmlns="http://www.w3.org/2000/svg">
<g clip-path="url(#clip0_4075_770)">
<path fill-rule="evenodd" clip-rule="evenodd" d="M61.5247 28.2318L61.5244 15.3045H67.3105L67.3108 16.9907C67.7513 16.3218 68.3616 15.7819 69.0793 15.4263C69.8104 15.0688 70.6208 14.9041 71.4335 14.9478L71.4332 20.1865C71.2338 20.0771 71.0241 19.9874 70.8073 19.9186C70.5785 19.8463 70.3398 19.8098 70.0998 19.8106C69.7236 19.8021 69.3512 19.8869 69.0157 20.0573C68.6803 20.2277 68.3922 20.4786 68.1773 20.7875C67.7183 21.4689 67.4851 22.2775 67.5109 23.0988L67.5112 28.2323L61.5247 28.2318Z" fill="white"/>
<path fill-rule="evenodd" clip-rule="evenodd" d="M77.6272 23.6379C77.1837 23.1099 76.9629 22.43 77.0115 21.7421C76.9855 21.0688 77.2039 20.4087 77.6264 19.8837C77.8239 19.6459 78.0733 19.4565 78.3554 19.3301C78.6375 19.2037 78.9448 19.1436 79.2537 19.1544C79.5586 19.1461 79.8613 19.2075 80.1387 19.334C80.4162 19.4605 80.6611 19.6487 80.8547 19.8843C81.277 20.4106 81.5022 21.0679 81.4914 21.7426C81.5253 22.4319 81.2979 23.1086 80.8545 23.6374C80.657 23.8673 80.411 24.0508 80.1343 24.1745C79.8575 24.2982 79.5568 24.3592 79.2537 24.3531C78.9466 24.3614 78.6415 24.3016 78.3603 24.1779C78.079 24.0543 77.8287 23.8698 77.6272 23.6379ZM81.3341 15.291V16.6826C80.858 16.0832 80.2554 15.5965 79.5692 15.2573C78.4415 14.7386 77.175 14.603 75.9631 14.8712C74.7511 15.1394 73.6601 15.7967 72.8565 16.7428C71.719 18.1533 71.1389 19.9322 71.2263 21.7421C71.1207 23.6195 71.748 25.4645 72.9759 26.8886C73.4936 27.4825 74.1329 27.9581 74.8506 28.2832C75.5684 28.6082 76.3476 28.775 77.1354 28.7723C77.9206 28.776 78.6985 28.622 79.423 28.3193C80.1672 28.0007 80.823 27.5062 81.3341 26.8785V28.2193L87.123 28.2184L87.1233 15.2904L81.3341 15.291Z" fill="white"/>
<path fill-rule="evenodd" clip-rule="evenodd" d="M94.5636 23.5871C94.1474 23.065 93.9363 22.4089 93.97 21.7421C93.9393 21.0836 94.1506 20.4366 94.5641 19.9231C94.7532 19.6968 94.9913 19.5165 95.2604 19.3959C95.5295 19.2754 95.8225 19.2176 96.1172 19.2272C96.4061 19.2183 96.6932 19.2765 96.9559 19.397C97.2186 19.5176 97.4498 19.6974 97.6315 19.9222C98.0366 20.44 98.243 21.0856 98.2134 21.7423C98.2503 22.4118 98.0437 23.072 97.6318 23.601C97.448 23.8227 97.2159 23.9993 96.9534 24.1175C96.6908 24.2356 96.4047 24.2921 96.1169 24.2827C95.8222 24.2923 95.5291 24.2346 95.26 24.1141C94.9908 23.9936 94.7527 23.8134 94.5636 23.5871ZM97.8554 8.58936V16.4479C97.3798 15.9058 96.7928 15.4727 96.1345 15.1782C95.4441 14.8781 94.6978 14.7278 93.9451 14.7371C93.144 14.7181 92.3497 14.8885 91.6269 15.2344C90.9041 15.5803 90.2732 16.0921 89.7855 16.7279C88.6814 18.1604 88.1143 19.9345 88.1828 21.7418C88.0931 23.5791 88.678 25.3857 89.8275 26.8218C90.3252 27.4354 90.9546 27.9293 91.6689 28.2669C92.3833 28.6045 93.1644 28.7772 93.9545 28.7723C94.7143 28.7735 95.466 28.6146 96.1604 28.3061C96.8908 27.9769 97.538 27.4879 98.0542 26.8752V28.2193L103.844 28.219L103.844 8.58998L97.8554 8.58936Z" fill="white"/>
<path fill-rule="evenodd" clip-rule="evenodd" d="M105.862 15.2912L111.847 15.2917V28.2191L105.862 28.2195L105.862 15.2912ZM105.483 11.1883C105.482 10.7849 105.57 10.3862 105.741 10.0209C105.913 9.65553 106.163 9.33256 106.473 9.07507C107.134 8.50677 107.977 8.19428 108.848 8.19434C109.72 8.19439 110.562 8.507 111.223 9.07538C111.536 9.33241 111.788 9.65561 111.961 10.0217C112.134 10.3878 112.224 10.7878 112.224 11.1927C112.224 11.5977 112.134 11.9976 111.961 12.3637C111.788 12.7298 111.536 13.053 111.223 13.3101C110.56 13.8738 109.718 14.1834 108.848 14.1834C107.978 14.1835 107.136 13.874 106.474 13.3104C106.16 13.0532 105.909 12.7291 105.737 12.3618C105.566 11.9946 105.479 11.5936 105.483 11.1883Z" fill="white"/>
<path fill-rule="evenodd" clip-rule="evenodd" d="M119.278 23.2811C118.923 22.8481 118.736 22.3013 118.751 21.7413C118.739 21.1902 118.926 20.6532 119.278 20.2293C119.472 20.0297 119.703 19.871 119.959 19.7626C120.215 19.6542 120.49 19.5983 120.768 19.5983C121.046 19.5984 121.321 19.6543 121.577 19.7627C121.833 19.8711 122.065 20.0299 122.258 20.2296C122.618 20.65 122.81 21.1886 122.798 21.7419C122.813 22.3038 122.621 22.8517 122.258 23.2811C122.065 23.4802 121.833 23.6384 121.577 23.7464C121.321 23.8545 121.046 23.9101 120.768 23.9101C120.49 23.9101 120.215 23.8545 119.959 23.7464C119.704 23.6384 119.472 23.4802 119.278 23.2811ZM126.405 26.9293C127.135 26.2839 127.71 25.4823 128.087 24.5841C128.465 23.6859 128.635 22.7142 128.585 21.7411C128.638 20.7738 128.471 19.8071 128.096 18.9139C127.721 18.0206 127.149 17.224 126.421 16.584C124.781 15.3835 122.802 14.7363 120.769 14.7363C118.737 14.7363 116.757 15.3835 115.117 16.584C114.393 17.2262 113.823 18.0236 113.451 18.9168C113.078 19.81 112.912 20.7758 112.965 21.7422C112.898 22.7132 113.057 23.6865 113.428 24.5863C113.799 25.4861 114.373 26.288 115.105 26.9296C116.715 28.199 118.725 28.8521 120.774 28.7713C122.811 28.8507 124.809 28.1972 126.405 26.9293Z" fill="white"/>
<path fill-rule="evenodd" clip-rule="evenodd" d="M129.649 28.2188V8.58984H135.633V28.2188H129.649Z" fill="white"/>
<path fill-rule="evenodd" clip-rule="evenodd" d="M143.136 23.638C142.689 23.1115 142.468 22.4302 142.522 21.7419C142.494 21.0687 142.712 20.4084 143.135 19.8835C143.332 19.6456 143.581 19.4561 143.864 19.3297C144.146 19.2033 144.453 19.1434 144.762 19.1545C145.066 19.1461 145.368 19.2074 145.645 19.3338C145.922 19.4602 146.167 19.6482 146.36 19.8835C146.783 20.4097 147.01 21.0671 147.001 21.7425C147.034 22.4324 146.806 23.1096 146.36 23.6377C146.163 23.8676 145.918 24.051 145.642 24.1747C145.365 24.2984 145.065 24.3592 144.762 24.353C144.455 24.3618 144.15 24.3022 143.868 24.1786C143.587 24.0549 143.337 23.8703 143.136 23.638ZM146.842 15.2911L146.843 16.6831C146.366 16.0829 145.763 15.5956 145.076 15.2565C143.948 14.7379 142.681 14.6025 141.469 14.8709C140.257 15.1392 139.165 15.7967 138.362 16.7429C137.226 18.1543 136.646 19.9329 136.733 21.7424C136.628 23.6198 137.257 25.4644 138.485 26.8879C139.003 27.4822 139.642 27.958 140.36 28.2832C141.078 28.6084 141.857 28.7752 142.645 28.7724C143.429 28.7749 144.205 28.621 144.929 28.3197C145.674 28.0007 146.33 27.5064 146.842 26.8788V28.219L152.63 28.2185L152.63 15.2905L146.842 15.2911Z" fill="white"/>
<path fill-rule="evenodd" clip-rule="evenodd" d="M160.626 23.587C160.209 23.0653 159.998 22.4089 160.033 21.742C160.007 21.0908 160.212 20.4513 160.611 19.9364C160.801 19.7142 161.036 19.5357 161.301 19.4134C161.566 19.291 161.854 19.2276 162.146 19.2276C162.438 19.2276 162.726 19.291 162.991 19.4134C163.256 19.5357 163.491 19.7142 163.681 19.9364C164.09 20.447 164.301 21.0886 164.274 21.7425C164.292 22.4117 164.072 23.0655 163.653 23.5879C163.473 23.8105 163.244 23.9889 162.984 24.1093C162.724 24.2298 162.44 24.2892 162.153 24.2829C161.863 24.2904 161.574 24.2317 161.309 24.1111C161.045 23.9905 160.811 23.8113 160.626 23.587ZM154.402 8.58984V28.2192L160.191 28.2189L160.19 26.884C160.664 27.5185 161.294 28.0186 162.02 28.3349C162.74 28.6321 163.513 28.7806 164.293 28.7717C165.065 28.7688 165.826 28.5976 166.525 28.2701C167.224 27.9425 167.843 27.4664 168.339 26.8751C169.546 25.4461 170.162 23.6101 170.062 21.7421C170.128 19.9331 169.557 18.1583 168.447 16.7278C167.961 16.0944 167.332 15.5842 166.611 15.2383C165.891 14.8924 165.1 14.7205 164.301 14.7364C163.544 14.7281 162.793 14.8786 162.097 15.1783C161.439 15.4659 160.854 15.9 160.389 16.4475L160.389 8.58984H154.402Z" fill="white"/>
<path fill-rule="evenodd" clip-rule="evenodd" d="M21.8615 0.469238C17.5366 0.468675 13.3086 1.75067 9.71226 4.15309C6.11594 6.55552 3.31282 9.97046 1.65739 13.966C0.00196934 17.9616 -0.431401 22.3584 0.412089 26.6003C1.25558 30.8422 3.33804 34.7387 6.39612 37.797C9.4542 40.8553 13.3505 42.9381 17.5924 43.7819C21.8342 44.6258 26.231 44.1927 30.2267 42.5376C34.2224 40.8825 37.6376 38.0797 40.0403 34.4835C42.443 30.8874 43.7253 26.6595 43.7251 22.3346C43.7253 19.4633 43.16 16.62 42.0613 13.9672C40.9626 11.3144 39.3522 8.90402 37.322 6.87361C35.2917 4.84321 32.8814 3.23259 30.2287 2.13372C27.576 1.03486 24.7328 0.469263 21.8615 0.469238ZM21.8142 40.2673C18.2771 40.2683 14.8191 39.2204 11.8777 37.2561C8.93616 35.2918 6.64324 32.4993 5.28886 29.2318C3.93448 25.9643 3.57947 22.3685 4.26874 18.8993C4.95801 15.43 6.66058 12.2431 9.16116 9.74144C11.6617 7.23984 14.848 5.53594 18.317 4.84524C21.7859 4.15454 25.3818 4.50806 28.6499 5.86109C31.918 7.21412 34.7114 9.50589 36.6769 12.4466C38.6425 15.3872 39.6918 18.8448 39.6923 22.3818C39.6931 27.1243 37.81 31.6729 34.4572 35.0271C31.1045 38.3812 26.5567 40.2662 21.8142 40.2673Z" fill="white"/>
<path fill-rule="evenodd" clip-rule="evenodd" d="M29.8863 21.6998C25.8296 20.3107 22.1979 17.9025 19.3398 14.7061C18.3482 15.5935 17.5421 16.6683 16.9677 17.8686C16.3934 19.0689 16.0622 20.3709 15.9932 21.6998H29.8863Z" fill="white"/>
<path fill-rule="evenodd" clip-rule="evenodd" d="M26.0902 10.8341C28.3714 10.8333 30.5993 11.5239 32.4801 12.8149C30.566 10.6907 28.0589 9.18909 25.2827 8.50415C22.5065 7.81922 19.5888 7.9824 16.9062 8.9726C17.6393 10.38 18.5107 11.7109 19.5076 12.9456C21.4274 11.5715 23.7293 10.8331 26.0902 10.8341Z" fill="white"/>
<path fill-rule="evenodd" clip-rule="evenodd" d="M20.3301 13.9124C24.3691 18.4147 29.9816 21.1957 36.0105 21.6822C36.0524 21.6799 36.0941 21.6787 36.1383 21.6763C36.1131 21.1969 36.068 20.7253 35.9972 20.2615C35.6762 18.6136 34.949 17.072 33.8815 15.7762C32.8141 14.4805 31.4402 13.4716 29.8843 12.8411C28.3284 12.2105 26.6397 11.9783 24.9713 12.1654C23.303 12.3524 21.7077 12.9529 20.3301 13.9124Z" fill="white"/>
<path fill-rule="evenodd" clip-rule="evenodd" d="M20.4287 30.6206C21.8522 31.5837 23.498 32.1678 25.2102 32.3175C26.9224 32.4671 28.6445 32.1775 30.2136 31.4759C31.7826 30.7744 33.1467 29.6841 34.1768 28.3082C35.207 26.9323 35.869 25.3164 36.1003 23.6133C36.1173 23.3978 36.1332 23.186 36.1409 22.9693L35.8483 22.9688C29.9296 23.4914 24.4246 26.2232 20.4287 30.6206Z" fill="white"/>
<path fill-rule="evenodd" clip-rule="evenodd" d="M21.8618 36.6816C24.0367 36.6834 26.1832 36.1877 28.137 35.2324C30.0908 34.2771 31.8002 32.8875 33.1343 31.1699C31.2232 32.6868 28.8735 33.5463 26.4347 33.6206C23.9959 33.6949 21.5983 32.9801 19.5983 31.5824C18.5369 32.8788 17.6155 34.2838 16.8496 35.774C18.4522 36.3753 20.1501 36.6827 21.8618 36.6816Z" fill="white"/>
<path fill-rule="evenodd" clip-rule="evenodd" d="M18.602 30.7966C17.4728 29.8116 16.5499 28.6127 15.8863 27.2692C15.2228 25.9257 14.8318 24.4641 14.7358 22.9688H7.58203C7.68647 25.5632 8.49572 28.0801 9.92286 30.2492C11.35 32.4183 13.3411 34.1577 15.6823 35.2804C16.4936 33.6864 17.4724 32.1834 18.602 30.7966Z" fill="white"/>
<path fill-rule="evenodd" clip-rule="evenodd" d="M14.7262 21.6987C14.7961 20.1863 15.1676 18.7032 15.8187 17.3364C16.4698 15.9696 17.3875 14.7466 18.5178 13.7394C17.4463 12.4131 16.5135 10.9806 15.7339 9.46436C13.395 10.5749 11.4016 12.2996 9.96628 14.4544C8.53094 16.6092 7.70756 19.1132 7.58398 21.6994L14.7262 21.6987Z" fill="white"/>
<path fill-rule="evenodd" clip-rule="evenodd" d="M19.4299 29.8337C22.2562 26.709 25.8253 24.3478 29.8067 22.9688H16.0039C16.1981 25.6187 17.429 28.0853 19.4299 29.8337Z" fill="white"/>
<path fill-rule="evenodd" clip-rule="evenodd" d="M70.0347 41.2073H66.2899V40.8257C66.3715 40.8207 66.4897 40.8109 66.6465 40.7976C66.7563 40.7929 66.8651 40.7733 66.9696 40.7393C67.0716 40.7043 67.159 40.6362 67.2179 40.5459C67.2666 40.4518 67.2903 40.3468 67.2865 40.2409V37.8525H64.328V40.1874C64.3262 40.2906 64.3502 40.3926 64.398 40.4842C64.4524 40.5785 64.5378 40.651 64.6398 40.6892C64.7429 40.7272 64.8496 40.7551 64.9581 40.7724C65.0784 40.7985 65.2003 40.8164 65.3229 40.8261V41.2074H61.5781V40.8258C61.6598 40.824 61.7797 40.8128 61.9364 40.7943C62.0535 40.7858 62.1693 40.764 62.2814 40.7294C62.3843 40.6975 62.4716 40.6285 62.5264 40.5357C62.5735 40.4412 62.5969 40.3366 62.5947 40.231V35.329C62.5974 35.2294 62.5763 35.1306 62.5331 35.0408C62.4737 34.947 62.3854 34.8751 62.2814 34.8358C62.1619 34.7846 62.0374 34.746 61.9098 34.7207C61.8006 34.6936 61.6898 34.6731 61.5782 34.6592V34.2788H65.323V34.6592C65.2015 34.6683 65.0807 34.685 64.9613 34.7091C64.8528 34.7272 64.7455 34.7517 64.6399 34.7825C64.5858 34.796 64.5354 34.8209 64.4919 34.8557C64.4485 34.8905 64.4131 34.9343 64.3882 34.9841C64.3482 35.0773 64.3277 35.1777 64.328 35.2792V37.3507H67.2866V35.329C67.2896 35.2292 67.2678 35.1302 67.2231 35.0408C67.1625 34.9474 67.0737 34.8756 66.9697 34.8358C66.8604 34.7878 66.7465 34.7509 66.6298 34.7258C66.518 34.6967 66.4045 34.6745 66.2899 34.6592V34.2788H70.0347V34.6592C69.9169 34.6669 69.7996 34.6808 69.6832 34.7008C69.5646 34.7192 69.4476 34.7466 69.3331 34.7825C69.2797 34.7962 69.2298 34.8211 69.1867 34.8555C69.1436 34.89 69.1083 34.9332 69.0831 34.9823C69.0406 35.0754 69.0189 35.1768 69.0197 35.2792V40.1873C69.0167 40.2899 69.0385 40.3917 69.0831 40.4841C69.1405 40.5791 69.2288 40.6515 69.3331 40.6891C69.4421 40.7314 69.5556 40.7611 69.6713 40.7776C69.7914 40.8006 69.9128 40.8168 70.0347 40.826V41.2073Z" fill="white"/>
<path fill-rule="evenodd" clip-rule="evenodd" d="M73.742 41.207H70.657V40.8504C70.7418 40.8436 70.8251 40.8357 70.9054 40.8258C70.9772 40.8193 71.0478 40.803 71.1151 40.7773C71.2065 40.7496 71.2847 40.6898 71.3354 40.6089C71.3817 40.5195 71.4035 40.4194 71.3986 40.3189V37.4768C71.4016 37.3715 71.3745 37.2676 71.3204 37.1772C71.2721 37.0938 71.2054 37.0225 71.1254 36.9689C71.0427 36.9194 70.9535 36.8818 70.8603 36.8572C70.7546 36.8232 70.6456 36.8003 70.5352 36.7889V36.4318L72.927 36.3054L73.0002 36.379V40.2551C72.9974 40.3569 73.0229 40.4574 73.0736 40.5457C73.1225 40.6262 73.1962 40.6888 73.2836 40.724C73.3534 40.7549 73.4251 40.7811 73.4985 40.8022C73.5782 40.8251 73.6596 40.8413 73.742 40.8507L73.742 41.207ZM73.0303 34.547C73.0315 34.6669 73.0065 34.7856 72.957 34.8947C72.9075 35.0039 72.8347 35.1009 72.7437 35.1789C72.5579 35.3472 72.3161 35.4405 72.0653 35.4405C71.8146 35.4405 71.5728 35.3472 71.387 35.1789C71.2966 35.1006 71.2242 35.0035 71.175 34.8945C71.1257 34.7854 71.1008 34.667 71.1018 34.5474C71.1009 34.4272 71.1259 34.3083 71.1751 34.1987C71.2243 34.0891 71.2966 33.9914 71.387 33.9124C71.5729 33.7429 71.8155 33.6489 72.067 33.6489C72.3186 33.6489 72.5612 33.7429 72.7471 33.9124C72.837 33.9917 72.9087 34.0894 72.9576 34.1989C73.0064 34.3084 73.0312 34.4272 73.0303 34.547Z" fill="white"/>
<path fill-rule="evenodd" clip-rule="evenodd" d="M79.6599 36.9101H78.5864C78.7068 37.0439 78.8033 37.1975 78.8716 37.364C78.9346 37.5227 78.9668 37.6919 78.9666 37.8626C78.9667 38.0863 78.9043 38.3056 78.7866 38.4959C78.6678 38.6901 78.5058 38.8543 78.3132 38.9758C78.0968 39.1099 77.8613 39.2105 77.6148 39.2742C77.3306 39.3473 77.0382 39.3831 76.7448 39.3808L75.95 39.3806C75.9002 39.4209 75.8563 39.4682 75.8199 39.5209C75.7771 39.5727 75.7526 39.6372 75.7499 39.7043C75.7447 39.7651 75.7583 39.8261 75.7886 39.8791C75.819 39.932 75.8648 39.9744 75.92 40.0007C76.1187 40.0716 76.3292 40.1033 76.54 40.094C76.8368 40.1005 77.1362 40.1128 77.4383 40.1308C77.7416 40.1484 77.9582 40.1589 78.0883 40.1624C78.2802 40.173 78.4695 40.2118 78.6501 40.2774C78.8244 40.3377 78.9876 40.4261 79.1334 40.5391C79.2869 40.6561 79.4132 40.8052 79.5033 40.9759C79.6042 41.1642 79.6547 41.3754 79.6499 41.589C79.6514 41.8327 79.59 42.0727 79.4716 42.2857C79.341 42.5172 79.1542 42.7121 78.9285 42.8524C78.6428 43.0302 78.3304 43.1608 78.0032 43.2391C77.5648 43.338 77.1161 43.3839 76.6667 43.3757C76.0009 43.4084 75.3355 43.3017 74.7133 43.0625C74.5191 42.994 74.3508 42.8674 74.2312 42.6998C74.1116 42.5322 74.0465 42.3318 74.0449 42.1259C74.0454 41.9979 74.0789 41.8721 74.1423 41.7609C74.2056 41.6496 74.2967 41.5566 74.4066 41.4909C74.7486 41.2976 75.1374 41.2029 75.53 41.2174V41.1587C75.2683 41.0802 75.0282 40.9423 74.8284 40.7559C74.7491 40.6809 74.6859 40.5904 74.6426 40.4901C74.5993 40.3898 74.5769 40.2818 74.5767 40.1726C74.5726 40.0494 74.6077 39.928 74.6768 39.8259C74.7467 39.728 74.8336 39.6433 74.9333 39.5759C75.0365 39.5089 75.148 39.4556 75.265 39.4174C75.3968 39.374 75.5051 39.3392 75.5932 39.3124V39.2592C75.2267 39.1419 74.8939 38.9378 74.6232 38.6642C74.4157 38.4266 74.3051 38.1196 74.3134 37.8042C74.3116 37.5715 74.372 37.3425 74.4883 37.1409C74.6046 36.9393 74.7727 36.7725 74.975 36.6575C75.48 36.3536 76.0628 36.2042 76.6517 36.2275C76.8673 36.2267 77.0825 36.2452 77.2949 36.2825C77.5018 36.3205 77.6586 36.3538 77.7652 36.3822L79.6601 36.382L79.6599 36.9101ZM77.3698 37.8422C77.3844 37.531 77.3226 37.2209 77.1898 36.9391C77.1484 36.8638 77.0923 36.7976 77.0248 36.7445C76.9573 36.6913 76.8798 36.6524 76.7969 36.6298C76.714 36.6073 76.6274 36.6017 76.5423 36.6133C76.4572 36.625 76.3753 36.6536 76.3015 36.6976C76.2029 36.7628 76.1236 36.8531 76.0716 36.9592C76.0129 37.0816 75.9746 37.2128 75.9582 37.3475C75.9393 37.499 75.9298 37.6515 75.9298 37.8042C75.9181 38.1062 75.9817 38.4063 76.1149 38.6776C76.1605 38.7795 76.2347 38.8661 76.3285 38.9267C76.4223 38.9874 76.5316 39.0195 76.6433 39.0191C76.7525 39.0223 76.8605 38.9954 76.9555 38.9413C77.0504 38.8872 77.1287 38.808 77.1816 38.7124C77.3224 38.4449 77.3874 38.144 77.3698 37.8422ZM78.1899 41.9439C78.1888 41.8284 78.1571 41.7153 78.098 41.616C77.9974 41.4788 77.8496 41.3838 77.683 41.3492C77.4908 41.3231 77.297 41.3103 77.103 41.3109C76.8349 41.3039 76.4666 41.3005 75.9981 41.3007C75.8833 41.3985 75.7869 41.5159 75.7132 41.6474C75.6327 41.7955 75.593 41.9623 75.5981 42.1307C75.6006 42.2242 75.6239 42.3159 75.6664 42.3992C75.718 42.5045 75.7914 42.5976 75.8816 42.6724C75.995 42.767 76.1234 42.8419 76.2614 42.8941C76.467 42.957 76.6817 42.9846 76.8964 42.9757C77.2349 42.9978 77.5716 42.9121 77.8582 42.7308C77.9736 42.6367 78.0641 42.5158 78.1219 42.3786C78.1798 42.2414 78.2031 42.0922 78.1899 41.9439Z" fill="white"/>
<path fill-rule="evenodd" clip-rule="evenodd" d="M86.3071 41.2073H83.367V40.8506C83.4322 40.8438 83.5087 40.8359 83.5971 40.826C83.6646 40.8222 83.7308 40.8058 83.7921 40.7775C83.8579 40.7451 83.909 40.6892 83.9353 40.6208C83.9678 40.5237 83.9819 40.4214 83.977 40.3191V38.0341C83.9961 37.7699 83.9301 37.5065 83.7887 37.2824C83.7269 37.2001 83.6458 37.1342 83.5525 37.0906C83.4592 37.047 83.3567 37.027 83.2538 37.0324C83.1303 37.0318 83.0075 37.0515 82.8904 37.0908C82.7734 37.1333 82.6624 37.191 82.5605 37.2626C82.4762 37.3187 82.3999 37.3859 82.3337 37.4624C82.277 37.5307 82.2288 37.5908 82.1903 37.6423V40.2655C82.1868 40.3624 82.2015 40.4592 82.2336 40.5507C82.268 40.6257 82.3267 40.6869 82.4003 40.7242C82.4607 40.7581 82.5251 40.7844 82.5919 40.8025C82.6685 40.8243 82.7466 40.8405 82.8255 40.8509V41.2073H79.8554V40.8506C79.9404 40.8438 80.0238 40.8359 80.102 40.826C80.1749 40.8189 80.2466 40.8026 80.3155 40.7775C80.405 40.7506 80.4808 40.6903 80.5272 40.6091C80.5687 40.5183 80.5881 40.4189 80.5836 40.3191V34.874C80.5811 34.7597 80.5563 34.6471 80.5105 34.5423C80.4703 34.4359 80.3989 34.3441 80.3056 34.279C80.2184 34.2276 80.1222 34.1937 80.0221 34.179C79.9127 34.1563 79.8019 34.1408 79.6904 34.1326V33.7754L82.1172 33.6489L82.1903 33.7272V37.0857H82.2104C82.3337 36.9754 82.4454 36.8758 82.5438 36.7858C82.6573 36.686 82.7789 36.5957 82.9072 36.5159C83.054 36.4264 83.2128 36.3585 83.3789 36.3141C83.5834 36.2577 83.7949 36.2303 84.007 36.2324C84.2263 36.2158 84.4464 36.2479 84.6518 36.3262C84.8573 36.4046 85.0428 36.5273 85.1953 36.6857C85.4721 37.0213 85.6141 37.4479 85.5939 37.8824V40.2741C85.5897 40.3731 85.6079 40.4717 85.6472 40.5626C85.6915 40.6415 85.7623 40.7023 85.847 40.7341C85.9105 40.761 85.9756 40.7839 86.042 40.8025C86.1291 40.8247 86.2177 40.8409 86.3071 40.8509V41.2073Z" fill="white"/>
<path fill-rule="evenodd" clip-rule="evenodd" d="M95.8426 36.0125C95.8516 36.364 95.7682 36.7116 95.6008 37.0208C95.44 37.3018 95.2106 37.5375 94.9341 37.7059C94.6251 37.8951 94.2857 38.0292 93.9309 38.1025C93.5136 38.1878 93.0884 38.2285 92.6624 38.224L92.0975 38.2238V40.172C92.0951 40.2776 92.1174 40.3822 92.1624 40.4776C92.2191 40.5746 92.3083 40.6483 92.4141 40.686C92.5174 40.7213 92.6233 40.7486 92.7308 40.7676C92.8535 40.7941 92.9777 40.8136 93.1027 40.826V41.2073H89.3477V40.8257C89.4426 40.8175 89.5677 40.8025 89.7241 40.7857C89.8354 40.7773 89.9452 40.755 90.0509 40.7192C90.1538 40.686 90.2425 40.6191 90.3026 40.5293C90.3479 40.4313 90.369 40.3239 90.3641 40.216V35.329C90.3668 35.227 90.3464 35.1256 90.3043 35.0326C90.2479 34.9351 90.1578 34.8615 90.0509 34.8259C89.9339 34.7781 89.812 34.7428 89.6875 34.7208C89.5359 34.689 89.4225 34.6692 89.3477 34.6593V34.2789H93.171C93.8665 34.2324 94.5613 34.3802 95.1777 34.7058C95.395 34.8444 95.5713 35.0387 95.6882 35.2685C95.8051 35.4983 95.8584 35.7552 95.8426 36.0125ZM93.9375 36.2605C93.9692 35.8492 93.8579 35.4396 93.6225 35.1008C93.475 34.9596 93.2981 34.8524 93.1046 34.787C92.9111 34.7216 92.7055 34.6996 92.5025 34.7224L92.0974 34.7222V37.7652H92.3024C92.7401 37.7961 93.1739 37.6645 93.5208 37.3958C93.6686 37.2483 93.7825 37.0703 93.8545 36.8742C93.9265 36.6781 93.9548 36.4686 93.9375 36.2605Z" fill="white"/>
<path fill-rule="evenodd" clip-rule="evenodd" d="M101.554 40.0402C101.437 40.2299 101.299 40.4061 101.143 40.5655C100.979 40.7305 100.794 40.8724 100.593 40.9872C100.384 41.1068 100.162 41.2014 99.931 41.269C99.6804 41.3355 99.4218 41.3675 99.1626 41.364C98.7373 41.3735 98.314 41.3039 97.9142 41.1588C97.5898 41.0377 97.2946 40.8497 97.0476 40.6071C96.8198 40.3749 96.6457 40.0956 96.5376 39.7888C96.4232 39.4599 96.3663 39.1137 96.3693 38.7655C96.3685 38.1082 96.6203 37.4758 97.0725 36.9989C97.3101 36.7564 97.5949 36.5652 97.9093 36.4371C98.268 36.2894 98.653 36.2163 99.0409 36.2222C99.4216 36.2105 99.8014 36.2663 100.163 36.3872C100.436 36.486 100.684 36.643 100.891 36.8472C101.076 37.0314 101.214 37.2563 101.296 37.5038C101.381 37.7596 101.424 38.0276 101.423 38.2972V38.6138H98.1225C98.0868 39.1496 98.2217 39.6828 98.5077 40.1372C98.763 40.4167 99.1087 40.5972 99.4839 40.647C99.8592 40.6967 100.24 40.6124 100.559 40.409C100.806 40.2379 101.018 40.0219 101.184 39.7724L101.554 40.0402ZM99.6892 38.1851C99.6892 37.9882 99.6793 37.7889 99.6609 37.584C99.6477 37.4125 99.613 37.2434 99.5577 37.0806C99.5145 36.9468 99.4362 36.827 99.3309 36.7338C99.227 36.654 99.0985 36.6127 98.9675 36.6171C98.8417 36.6183 98.7186 36.6548 98.6124 36.7222C98.5061 36.7897 98.4208 36.8855 98.366 36.9988C98.1891 37.3751 98.1056 37.7885 98.1225 38.2039L99.6892 38.1851Z" fill="white"/>
<path fill-rule="evenodd" clip-rule="evenodd" d="M106.887 37.2571C106.89 37.4948 106.809 37.726 106.657 37.9091C106.585 37.9995 106.492 38.0719 106.388 38.1205C106.283 38.1691 106.168 38.1926 106.052 38.1892C105.837 38.1958 105.625 38.1327 105.448 38.0092C105.366 37.948 105.301 37.8673 105.258 37.7745C105.215 37.6816 105.196 37.5796 105.202 37.4774C105.199 37.3879 105.208 37.2984 105.227 37.2109C105.244 37.1471 105.257 37.0873 105.27 37.0324C105.102 37.0449 104.939 37.0987 104.797 37.1891C104.627 37.2898 104.477 37.4221 104.357 37.5791V40.2605C104.354 40.358 104.372 40.455 104.412 40.5442C104.45 40.6214 104.514 40.6832 104.592 40.7191C104.703 40.7661 104.82 40.7965 104.94 40.8092C105.102 40.8342 105.219 40.8475 105.29 40.8509V41.2073H102.024V40.8506C102.105 40.8438 102.187 40.8359 102.27 40.8242C102.342 40.8153 102.413 40.7997 102.482 40.7775C102.572 40.7531 102.65 40.6938 102.697 40.6125C102.74 40.5209 102.76 40.4202 102.755 40.3191V37.477C102.758 37.3666 102.729 37.2578 102.674 37.1625C102.622 37.0751 102.554 36.999 102.472 36.9391C102.403 36.8954 102.329 36.8628 102.25 36.8424C102.154 36.8143 102.055 36.7964 101.955 36.7892V36.432L104.283 36.3056L104.357 36.3792V37.0857H104.377C104.58 36.8441 104.822 36.6375 105.092 36.4742C105.329 36.3295 105.602 36.2522 105.88 36.2508C106.014 36.2438 106.148 36.265 106.273 36.3131C106.399 36.3612 106.513 36.4351 106.607 36.5299C106.702 36.6248 106.776 36.7385 106.824 36.8638C106.873 36.9891 106.894 37.1231 106.887 37.2571Z" fill="white"/>
<path fill-rule="evenodd" clip-rule="evenodd" d="M111.842 34.474C111.842 34.5648 111.829 34.655 111.804 34.7424C111.781 34.8337 111.738 34.9186 111.677 34.9907C111.614 35.0677 111.536 35.1311 111.448 35.1772C111.327 35.2257 111.197 35.2473 111.067 35.2408C110.952 35.246 110.838 35.2245 110.732 35.1779C110.627 35.1313 110.534 35.0609 110.461 34.9723C110.263 34.698 110.106 34.3974 109.992 34.0791C109.913 34.1248 109.844 34.1865 109.789 34.2602C109.735 34.3339 109.696 34.4181 109.676 34.5074C109.568 34.9962 109.526 35.4974 109.552 35.9973V36.382H110.901V36.91H109.562V40.274C109.556 40.3802 109.587 40.4853 109.651 40.5707C109.712 40.642 109.791 40.695 109.881 40.7242C109.981 40.756 110.084 40.7811 110.188 40.799C110.314 40.8239 110.429 40.8407 110.529 40.8509V41.2072H107.234V40.8505C107.319 40.8437 107.401 40.8359 107.481 40.8259C107.553 40.8188 107.624 40.8026 107.692 40.7775C107.782 40.7506 107.859 40.6903 107.906 40.6091C107.946 40.5179 107.965 40.4187 107.961 40.3191V36.9101H106.971V36.382H107.961C107.96 36.0392 108.012 35.6983 108.112 35.3706C108.209 35.0504 108.368 34.7526 108.581 34.4942C108.8 34.2287 109.078 34.018 109.392 33.879C109.764 33.7145 110.168 33.6342 110.574 33.644C110.902 33.6245 111.229 33.7046 111.511 33.8739C111.613 33.9369 111.697 34.0253 111.755 34.1304C111.813 34.2355 111.843 34.3539 111.842 34.474Z" fill="white"/>
<path fill-rule="evenodd" clip-rule="evenodd" d="M116.139 36.939C116.38 37.1639 116.569 37.4395 116.691 37.746C116.819 38.0688 116.884 38.4136 116.881 38.7611C116.883 39.1108 116.82 39.458 116.694 39.7843C116.574 40.0961 116.386 40.3773 116.144 40.6076C115.879 40.8557 115.566 41.0469 115.224 41.1694C114.831 41.3051 114.417 41.3711 114.001 41.3644C113.628 41.3685 113.257 41.3104 112.904 41.1926C112.577 41.0824 112.276 40.9085 112.017 40.681C111.766 40.4566 111.567 40.1809 111.432 39.8726C111.285 39.5329 111.212 39.166 111.217 38.796C111.211 38.4392 111.275 38.0846 111.405 37.7525C111.534 37.4446 111.726 37.1674 111.969 36.9392C112.226 36.7028 112.53 36.5229 112.86 36.4109C113.636 36.1599 114.471 36.1599 115.247 36.4109C115.577 36.5257 115.88 36.7053 116.139 36.939ZM114.889 40.3242C114.969 40.1099 115.022 39.8866 115.047 39.6594C115.084 39.358 115.102 39.0545 115.099 38.7509C115.097 38.4903 115.08 38.23 115.05 37.9711C115.03 37.7349 114.981 37.5021 114.904 37.2778C114.839 37.0915 114.727 36.9251 114.579 36.7944C114.423 36.6773 114.232 36.6152 114.037 36.6176C113.842 36.62 113.654 36.6869 113.501 36.8078C113.356 36.9445 113.247 37.1135 113.181 37.301C113.106 37.5115 113.059 37.7304 113.039 37.9527C113.012 38.2118 112.998 38.4722 112.999 38.7328C112.999 39.0874 113.011 39.3807 113.034 39.6126C113.059 39.8525 113.114 40.0883 113.199 40.3141C113.263 40.4994 113.374 40.6645 113.522 40.7927C113.673 40.913 113.861 40.9751 114.054 40.9676C114.235 40.9724 114.413 40.9148 114.557 40.8043C114.71 40.6778 114.825 40.5117 114.889 40.3242Z" fill="white"/>
<path fill-rule="evenodd" clip-rule="evenodd" d="M122.374 37.2571C122.378 37.4948 122.296 37.726 122.144 37.9091C122.072 37.9995 121.98 38.0719 121.875 38.1205C121.77 38.1691 121.655 38.1926 121.539 38.1892C121.324 38.1958 121.112 38.1327 120.936 38.0092C120.854 37.948 120.788 37.8673 120.745 37.7745C120.702 37.6816 120.683 37.5796 120.689 37.4774C120.687 37.3879 120.695 37.2984 120.714 37.2109C120.731 37.1471 120.744 37.0873 120.758 37.0324C120.589 37.0449 120.427 37.0987 120.284 37.1891C120.114 37.2898 119.965 37.4221 119.844 37.5791L119.844 40.2605C119.841 40.358 119.86 40.4549 119.899 40.5442C119.937 40.6214 120.001 40.6832 120.079 40.7191C120.19 40.7661 120.308 40.7965 120.428 40.8092C120.589 40.8342 120.706 40.8475 120.778 40.8509V41.2073H117.511V40.8506C117.593 40.8438 117.674 40.8359 117.758 40.8242C117.829 40.8153 117.9 40.7997 117.969 40.7775C118.06 40.7531 118.137 40.6938 118.184 40.6125C118.227 40.5209 118.247 40.4202 118.243 40.3191V37.477C118.245 37.3666 118.217 37.2578 118.161 37.1625C118.11 37.0751 118.041 36.999 117.959 36.9391C117.891 36.8954 117.816 36.8628 117.737 36.8424C117.641 36.8142 117.542 36.7964 117.442 36.7892V36.432L119.771 36.3056L119.844 36.3792V37.0857H119.864C120.068 36.8441 120.309 36.6375 120.579 36.4742C120.817 36.3295 121.089 36.2522 121.368 36.2508C121.502 36.2438 121.636 36.265 121.761 36.3131C121.886 36.3612 122 36.4351 122.095 36.5299C122.19 36.6248 122.264 36.7385 122.312 36.8638C122.36 36.9891 122.381 37.1231 122.374 37.2571Z" fill="white"/>
<path fill-rule="evenodd" clip-rule="evenodd" d="M132.413 41.2072H129.503V40.8505C129.574 40.8403 129.649 40.8324 129.728 40.8259C129.795 40.8231 129.862 40.8066 129.923 40.7774C129.957 40.7629 129.987 40.7405 130.011 40.7122C130.034 40.6838 130.051 40.6502 130.059 40.6141C130.082 40.5174 130.092 40.4183 130.089 40.319V38.039C130.107 37.7751 130.045 37.5119 129.911 37.284C129.854 37.2023 129.778 37.1364 129.689 37.0924C129.599 37.0484 129.5 37.0277 129.401 37.0323C129.273 37.0299 129.146 37.0526 129.026 37.0992C128.92 37.1413 128.819 37.1961 128.726 37.2624C128.643 37.3202 128.569 37.3892 128.506 37.4674C128.454 37.5357 128.411 37.5941 128.374 37.6422V40.2654C128.372 40.3621 128.386 40.4586 128.416 40.5506C128.445 40.6251 128.5 40.6867 128.571 40.7241C128.627 40.7555 128.687 40.7817 128.748 40.8024C128.817 40.8254 128.888 40.8416 128.961 40.8508V41.2072H126.173V40.8505C126.234 40.8437 126.309 40.8358 126.398 40.8259C126.465 40.8226 126.531 40.8061 126.593 40.7774C126.625 40.7619 126.653 40.74 126.676 40.713C126.7 40.6861 126.717 40.6546 126.728 40.6207C126.752 40.522 126.762 40.4205 126.759 40.319V38.039C126.777 37.7751 126.715 37.5119 126.581 37.284C126.524 37.2023 126.448 37.1363 126.358 37.0923C126.269 37.0483 126.17 37.0276 126.071 37.0323C125.943 37.0299 125.815 37.0526 125.696 37.0992C125.59 37.1413 125.489 37.1961 125.396 37.2624C125.313 37.3202 125.239 37.3892 125.176 37.4674C125.124 37.5357 125.081 37.5941 125.044 37.6422V40.2654C125.041 40.3614 125.056 40.4572 125.089 40.5475C125.118 40.6229 125.173 40.6854 125.244 40.7241C125.301 40.7552 125.361 40.7814 125.423 40.8024C125.492 40.8256 125.563 40.8418 125.636 40.8508V41.2072H122.711V40.8505C122.796 40.8437 122.879 40.8358 122.959 40.8259C123.031 40.8194 123.102 40.8031 123.169 40.7774C123.26 40.7506 123.337 40.6904 123.384 40.609C123.427 40.5186 123.448 40.419 123.443 40.319V37.4769C123.443 37.37 123.414 37.265 123.361 37.1722C123.312 37.0807 123.243 37.0011 123.159 36.939C123.091 36.8953 123.016 36.8627 122.938 36.8423C122.841 36.8142 122.743 36.7963 122.643 36.789V36.4319L124.971 36.3055L125.044 36.3791V37.0671H125.064C125.156 36.9855 125.264 36.889 125.389 36.7757C125.499 36.6757 125.617 36.5853 125.743 36.5055C125.887 36.4173 126.044 36.3516 126.208 36.3108C126.41 36.256 126.618 36.2295 126.828 36.2323C127.155 36.2204 127.478 36.3045 127.758 36.4741C127.998 36.6257 128.184 36.8505 128.288 37.1156L128.331 37.1153C128.426 37.0271 128.541 36.924 128.678 36.8058C128.796 36.7004 128.922 36.6045 129.054 36.5189C129.206 36.4282 129.369 36.3592 129.539 36.314C129.745 36.258 129.958 36.2305 130.171 36.2323C130.38 36.2193 130.59 36.2513 130.786 36.3261C130.982 36.4008 131.16 36.5166 131.308 36.6657C131.592 37.0127 131.734 37.4549 131.704 37.9025V40.274C131.7 40.3741 131.719 40.4739 131.759 40.5657C131.801 40.6443 131.87 40.7044 131.954 40.734C132.006 40.7553 132.071 40.7791 132.148 40.8024C132.234 40.827 132.323 40.8432 132.413 40.8508L132.413 41.2072Z" fill="white"/>
<path fill-rule="evenodd" clip-rule="evenodd" d="M138.45 41.104C138.285 41.1746 138.115 41.2321 137.941 41.2761C137.739 41.3286 137.53 41.3549 137.321 41.3543C137.016 41.3752 136.711 41.3136 136.438 41.1761C136.25 41.0602 136.112 40.8783 136.051 40.6661L136.023 40.6658C135.922 40.7667 135.815 40.8615 135.703 40.9496C135.6 41.0273 135.489 41.0943 135.373 41.1495C135.231 41.2171 135.083 41.2702 134.931 41.3079C134.736 41.3474 134.537 41.3647 134.338 41.3595C133.986 41.3684 133.642 41.2494 133.371 41.0244C133.241 40.9173 133.136 40.7817 133.067 40.6279C132.997 40.4742 132.964 40.3064 132.969 40.1377C132.965 39.9543 132.995 39.7717 133.058 39.5994C133.115 39.4532 133.199 39.3197 133.308 39.2063C133.405 39.1014 133.519 39.014 133.646 38.9477C133.783 38.8749 133.924 38.811 134.069 38.7561C134.361 38.6492 134.712 38.5381 135.123 38.4228C135.43 38.3424 135.731 38.2387 136.023 38.1126V37.6424C136.023 37.5607 136.016 37.4544 136.003 37.3212C135.994 37.2051 135.966 37.0913 135.919 36.9845C135.873 36.8786 135.799 36.7874 135.705 36.7211C135.591 36.6445 135.456 36.6065 135.32 36.6128C135.197 36.6086 135.074 36.6295 134.96 36.6744C134.878 36.707 134.8 36.7483 134.728 36.7976C134.748 36.8992 134.776 36.9989 134.811 37.0961C134.855 37.2204 134.878 37.351 134.879 37.4828C134.876 37.5535 134.861 37.6232 134.836 37.6894C134.811 37.7656 134.767 37.834 134.708 37.8879C134.633 37.9518 134.549 38.003 134.458 38.0395C134.319 38.0809 134.174 38.099 134.029 38.0928C133.805 38.1088 133.583 38.0377 133.409 37.8943C133.342 37.8288 133.289 37.7503 133.253 37.6636C133.217 37.577 133.199 37.4839 133.199 37.3901C133.2 37.2962 133.22 37.2035 133.257 37.1175C133.295 37.0314 133.349 36.9539 133.418 36.8894C133.57 36.7381 133.749 36.616 133.946 36.5294C134.172 36.4252 134.41 36.3491 134.655 36.3028C134.899 36.2515 135.148 36.2247 135.398 36.2228C135.688 36.2211 135.978 36.2394 136.266 36.2778C136.516 36.3111 136.758 36.3902 136.979 36.511C137.184 36.6267 137.35 36.7985 137.459 37.006C137.589 37.2687 137.65 37.5599 137.638 37.8527C137.638 38.2212 137.631 38.6574 137.616 39.1612C137.601 39.6656 137.594 39.9979 137.594 40.1578C137.589 40.2769 137.611 40.3955 137.66 40.5045C137.704 40.5891 137.775 40.6561 137.863 40.6944C137.946 40.7262 138.035 40.7421 138.124 40.7412C138.243 40.7457 138.351 40.7494 138.45 40.7494L138.45 41.104ZM136.023 38.5608C135.839 38.6228 135.659 38.6942 135.479 38.7746C135.324 38.84 135.177 38.9239 135.041 39.0246C134.92 39.1164 134.822 39.2365 134.758 39.3743C134.686 39.531 134.651 39.702 134.655 39.8744C134.645 39.9732 134.656 40.0728 134.686 40.1675C134.716 40.2622 134.764 40.3501 134.828 40.4259C134.884 40.4821 134.951 40.5263 135.024 40.5559C135.098 40.5854 135.177 40.5997 135.256 40.5978C135.411 40.6039 135.564 40.5657 135.698 40.4878C135.813 40.4142 135.916 40.3225 136.003 40.2162L136.023 38.5608Z" fill="white"/>
<path fill-rule="evenodd" clip-rule="evenodd" d="M145.269 41.2072H142.329V40.8506C142.393 40.8438 142.466 40.8359 142.554 40.826C142.623 40.8221 142.691 40.8057 142.754 40.7775C142.821 40.7448 142.873 40.689 142.901 40.6208C142.936 40.5242 142.951 40.4216 142.946 40.3191V38.0341C142.964 37.7712 142.9 37.5091 142.763 37.2841C142.701 37.2005 142.619 37.1336 142.525 37.0897C142.43 37.0457 142.327 37.026 142.223 37.0324C142.099 37.0316 141.976 37.0513 141.859 37.0908C141.742 37.1326 141.631 37.1905 141.529 37.2626C141.445 37.3183 141.369 37.3855 141.303 37.4624C141.246 37.5306 141.198 37.5908 141.158 37.6423V40.2655C141.155 40.3629 141.172 40.46 141.208 40.5507C141.238 40.6262 141.295 40.6879 141.368 40.7242C141.43 40.757 141.495 40.7832 141.563 40.8025C141.638 40.8245 141.715 40.8407 141.793 40.8509V41.2072H138.824V40.8506C138.906 40.8438 138.988 40.8359 139.071 40.8242C139.143 40.8153 139.214 40.7996 139.283 40.7775C139.373 40.7531 139.451 40.6938 139.498 40.6125C139.541 40.5208 139.561 40.4202 139.556 40.3191V37.477C139.556 37.3729 139.529 37.2705 139.479 37.1791C139.429 37.0848 139.358 37.0028 139.273 36.939C139.204 36.8954 139.129 36.8628 139.051 36.8424C138.955 36.8142 138.856 36.7964 138.756 36.7891V36.432L141.084 36.3056L141.158 36.3792V37.0856H141.178C141.269 37.0051 141.379 36.9073 141.509 36.7941C141.623 36.6927 141.744 36.5997 141.871 36.5158C142.018 36.4258 142.178 36.3578 142.344 36.314C142.548 36.258 142.758 36.2306 142.969 36.2324C143.189 36.2156 143.411 36.2474 143.617 36.3255C143.824 36.4035 144.01 36.526 144.164 36.6842C144.442 37.02 144.583 37.4475 144.561 37.8824V40.2741C144.557 40.3732 144.575 40.472 144.616 40.5626C144.66 40.6418 144.731 40.7026 144.816 40.7341C144.868 40.7553 144.931 40.7792 145.008 40.8024C145.093 40.8266 145.181 40.8429 145.269 40.8509L145.269 41.2072Z" fill="white"/>
<path fill-rule="evenodd" clip-rule="evenodd" d="M148.512 41.3642C148.104 41.3716 147.698 41.3044 147.314 41.166C146.992 41.0503 146.699 40.8661 146.456 40.626C146.23 40.393 146.059 40.1129 145.954 39.8059C145.84 39.4747 145.784 39.1263 145.787 38.776C145.786 38.4431 145.856 38.1137 145.991 37.8092C146.122 37.509 146.308 37.236 146.539 37.0042C146.793 36.7556 147.094 36.5617 147.426 36.4344C147.798 36.2891 148.196 36.2172 148.596 36.2227C149.092 36.1971 149.584 36.3145 150.016 36.5608C150.176 36.6535 150.31 36.7872 150.402 36.9483C150.494 37.1094 150.541 37.2921 150.539 37.4776C150.548 37.6829 150.482 37.8845 150.352 38.0442C150.267 38.1234 150.166 38.1834 150.055 38.2202C149.945 38.257 149.828 38.2697 149.712 38.2576C149.495 38.2654 149.281 38.2042 149.101 38.0828C149.024 38.0335 148.961 37.9656 148.918 37.8854C148.875 37.8052 148.853 37.7154 148.854 37.6244C148.854 37.4628 148.88 37.3023 148.932 37.1493C148.974 37.0343 149.005 36.9154 149.024 36.7943C148.992 36.7375 148.944 36.6907 148.887 36.6592C148.806 36.6227 148.718 36.6067 148.629 36.6127C148.489 36.6109 148.351 36.6465 148.229 36.7159C148.088 36.8053 147.972 36.9292 147.892 37.0758C147.776 37.2792 147.694 37.5006 147.65 37.731C147.585 38.0557 147.554 38.3864 147.559 38.7177C147.535 39.2174 147.679 39.7107 147.967 40.1194C148.075 40.28 148.22 40.4122 148.39 40.5047C148.559 40.5972 148.749 40.6474 148.942 40.6509C149.248 40.6669 149.551 40.582 149.804 40.4094C150.038 40.2218 150.232 39.988 150.372 39.7225L150.739 39.9777C150.64 40.1723 150.519 40.3547 150.377 40.5211C150.231 40.6904 150.062 40.838 149.874 40.9594C149.68 41.0871 149.47 41.1885 149.249 41.2609C149.01 41.3333 148.762 41.3682 148.512 41.3642Z" fill="white"/>
<path fill-rule="evenodd" clip-rule="evenodd" d="M156.286 40.0407C156.168 40.2304 156.03 40.4066 155.874 40.566C155.711 40.731 155.526 40.8729 155.324 40.9877C155.115 41.1073 154.893 41.2019 154.662 41.2695C154.412 41.336 154.153 41.3679 153.894 41.3645C153.469 41.374 153.045 41.3044 152.646 41.1593C152.321 41.0382 152.026 40.8502 151.779 40.6076C151.551 40.3754 151.377 40.0961 151.269 39.7893C151.155 39.4603 151.098 39.1142 151.101 38.7659C151.1 38.1087 151.352 37.4763 151.804 36.9993C152.042 36.7569 152.326 36.5657 152.641 36.4376C152.999 36.2899 153.384 36.2168 153.772 36.2227C154.153 36.211 154.533 36.2668 154.894 36.3877C155.167 36.4865 155.416 36.6435 155.623 36.8477C155.807 37.0318 155.946 37.2567 156.027 37.5043C156.113 37.76 156.155 38.0281 156.154 38.2977V38.6143H152.854C152.818 39.1501 152.953 39.6833 153.239 40.1377C153.494 40.4172 153.84 40.5977 154.215 40.6474C154.591 40.6972 154.971 40.6129 155.291 40.4095C155.537 40.2383 155.749 40.0224 155.916 39.7728L156.286 40.0407ZM154.421 38.1856C154.421 37.9887 154.411 37.7894 154.392 37.5845C154.379 37.413 154.344 37.2439 154.289 37.081C154.246 36.9472 154.168 36.8275 154.062 36.7343C153.958 36.6545 153.83 36.6132 153.699 36.6175C153.573 36.6188 153.45 36.6552 153.344 36.7227C153.238 36.7902 153.152 36.886 153.097 36.9993C152.921 37.3756 152.837 37.789 152.854 38.2044L154.421 38.1856Z" fill="white"/>
<path fill-rule="evenodd" clip-rule="evenodd" d="M167.303 41.2071H164.646C164.186 40.5037 163.804 39.9437 163.501 39.5271C163.196 39.1105 162.818 38.6289 162.366 38.0824H162.098V40.1871C162.094 40.2899 162.117 40.3918 162.162 40.4839C162.221 40.5782 162.31 40.6502 162.414 40.6889C162.508 40.7246 162.605 40.752 162.704 40.7708C162.817 40.7951 162.93 40.8135 163.044 40.8258V41.2071H159.348V40.8255C159.443 40.8173 159.566 40.8023 159.721 40.7855C159.833 40.7767 159.944 40.7544 160.051 40.719C160.154 40.6837 160.242 40.6137 160.299 40.5209C160.346 40.4262 160.368 40.3213 160.364 40.2158V35.3288C160.368 35.2282 160.349 35.1282 160.309 35.0358C160.251 34.9379 160.159 34.8649 160.051 34.8305C159.932 34.7832 159.809 34.7469 159.683 34.7222C159.541 34.6939 159.429 34.6724 159.348 34.6591V34.2786H163.234C163.919 34.237 164.602 34.3775 165.214 34.6856C165.43 34.8086 165.608 34.9889 165.727 35.2067C165.846 35.4244 165.903 35.6709 165.891 35.919C165.911 36.3488 165.76 36.7691 165.473 37.0888C165.117 37.4272 164.678 37.6654 164.201 37.7791C164.423 38.0653 164.681 38.3975 164.976 38.7757C165.269 39.1538 165.576 39.5394 165.896 39.9323C165.996 40.0607 166.134 40.2157 166.308 40.3988C166.433 40.5468 166.591 40.6634 166.769 40.739C166.864 40.7648 166.959 40.7843 167.056 40.7974C167.171 40.8139 167.253 40.824 167.303 40.8258L167.303 41.2071ZM163.978 36.0556C163.994 35.8683 163.967 35.6797 163.9 35.5042C163.833 35.3286 163.726 35.1707 163.589 35.0423C163.269 34.81 162.877 34.6968 162.483 34.7222L162.098 34.7219V37.6238H162.468C162.874 37.6488 163.273 37.5137 163.581 37.2474C163.725 37.0864 163.834 36.8976 163.903 36.6926C163.971 36.4876 163.996 36.2708 163.978 36.0556Z" fill="white"/>
<path fill-rule="evenodd" clip-rule="evenodd" d="M173.548 36.1289H173.171C173.052 35.8167 172.883 35.5258 172.671 35.2674C172.515 35.0205 172.272 34.8418 171.99 34.7675C171.891 34.7535 171.761 34.7425 171.6 34.7323C171.436 34.7221 171.286 34.7176 171.149 34.7176L170.071 34.717V37.4371H170.759C170.931 37.4404 171.101 37.4186 171.266 37.3725C171.411 37.3265 171.542 37.2452 171.648 37.1358C171.752 37.0159 171.832 36.8773 171.885 36.7273C171.952 36.571 171.999 36.4062 172.023 36.2375H172.394V39.1523H172.023C172 38.9675 171.95 38.7872 171.873 38.6175C171.818 38.4678 171.743 38.3269 171.648 38.1991C171.549 38.0922 171.424 38.0125 171.286 37.9675C171.116 37.9139 170.938 37.8885 170.759 37.8924H170.071V40.1873C170.068 40.2911 170.091 40.3941 170.136 40.4875C170.194 40.5819 170.283 40.6532 170.388 40.6891C170.483 40.7254 170.582 40.7528 170.683 40.771C170.808 40.7936 170.933 40.8141 171.056 40.826V41.2073H167.321V40.8257C167.416 40.8175 167.541 40.8025 167.698 40.7857C167.809 40.7773 167.919 40.7549 168.025 40.7191C168.126 40.6863 168.212 40.6191 168.269 40.5292C168.318 40.4322 168.342 40.3245 168.338 40.216V35.329C168.34 35.2284 168.319 35.1286 168.276 35.0373C168.219 34.9413 168.13 34.8682 168.025 34.8307C167.908 34.7833 167.787 34.747 167.663 34.7224C167.513 34.6907 167.4 34.6691 167.321 34.6592V34.2788H173.548L173.548 36.1289Z" fill="white"/>
<path fill-rule="evenodd" clip-rule="evenodd" d="M180.206 41.3923C179.72 41.3965 179.236 41.3129 178.78 41.1457C178.349 40.9895 177.955 40.7461 177.623 40.4308C177.291 40.1111 177.031 39.7241 176.861 39.2957C176.49 38.3377 176.49 37.2751 176.863 36.3175C177.043 35.8718 177.312 35.4674 177.653 35.1292C177.993 34.7935 178.4 34.5328 178.848 34.3641C179.325 34.1816 179.832 34.0895 180.343 34.0926C180.698 34.0883 181.052 34.1354 181.393 34.2326C181.67 34.3103 181.938 34.4159 182.193 34.5476L182.496 34.2788H182.921L182.965 36.8073H182.535C182.37 36.1837 182.07 35.604 181.656 35.1091C181.499 34.9351 181.305 34.7968 181.09 34.7034C180.874 34.61 180.641 34.5636 180.406 34.5674C180.122 34.5583 179.84 34.629 179.593 34.7716C179.346 34.9141 179.144 35.1228 179.01 35.3741C178.654 36.0752 178.489 36.8574 178.531 37.6423C178.522 38.1176 178.577 38.5919 178.695 39.0526C178.78 39.3883 178.924 39.7061 179.121 39.9909C179.295 40.2261 179.526 40.4135 179.791 40.5356C180.061 40.6542 180.352 40.7135 180.646 40.7092C181.081 40.7156 181.506 40.5862 181.863 40.3392C182.265 40.0393 182.598 39.6561 182.838 39.2158L183.258 39.469C183.127 39.7416 182.966 39.9993 182.78 40.2375C182.603 40.4615 182.394 40.6586 182.16 40.8225C181.897 41.0031 181.61 41.1446 181.306 41.2424C180.95 41.349 180.579 41.3995 180.206 41.3923Z" fill="white"/>
<path fill-rule="evenodd" clip-rule="evenodd" d="M188.658 36.939C188.899 37.1639 189.087 37.4395 189.209 37.746C189.338 38.0688 189.403 38.4136 189.399 38.7611C189.402 39.1108 189.338 39.458 189.213 39.7843C189.092 40.0961 188.904 40.3773 188.662 40.6076C188.397 40.8557 188.084 41.0469 187.742 41.1694C187.349 41.3051 186.935 41.3711 186.519 41.3644C186.147 41.3685 185.776 41.3104 185.422 41.1926C185.096 41.0824 184.795 40.9085 184.536 40.681C184.285 40.4566 184.085 40.1809 183.951 39.8726C183.804 39.5329 183.731 39.166 183.736 38.796C183.73 38.4392 183.794 38.0846 183.924 37.7525C184.052 37.4446 184.244 37.1674 184.487 36.9392C184.745 36.7028 185.048 36.5229 185.379 36.4109C186.155 36.1599 186.99 36.1599 187.766 36.4109C188.095 36.5257 188.399 36.7052 188.658 36.939ZM187.407 40.3242C187.487 40.1099 187.54 39.8866 187.566 39.6594C187.603 39.358 187.62 39.0545 187.618 38.7509C187.615 38.4903 187.599 38.23 187.569 37.9711C187.549 37.7349 187.499 37.5021 187.422 37.2778C187.357 37.0915 187.245 36.9251 187.097 36.7944C186.941 36.6773 186.751 36.6152 186.556 36.6176C186.361 36.62 186.172 36.6869 186.019 36.8078C185.875 36.9445 185.765 37.1135 185.699 37.301C185.625 37.5115 185.577 37.7304 185.557 37.9527C185.53 38.2118 185.517 38.4722 185.517 38.7328C185.517 39.0874 185.529 39.3807 185.552 39.6126C185.577 39.8525 185.633 40.0883 185.717 40.3141C185.781 40.4994 185.893 40.6645 186.041 40.7927C186.191 40.913 186.38 40.9751 186.572 40.9676C186.754 40.9724 186.932 40.9148 187.076 40.8043C187.228 40.6778 187.343 40.5116 187.407 40.3242Z" fill="white"/>
<path fill-rule="evenodd" clip-rule="evenodd" d="M199.731 41.2072H196.821V40.8505C196.893 40.8403 196.968 40.8324 197.046 40.8259C197.114 40.8231 197.18 40.8066 197.241 40.7774C197.275 40.7629 197.305 40.7406 197.329 40.7122C197.353 40.6838 197.369 40.6502 197.378 40.6141C197.4 40.5174 197.41 40.4183 197.408 40.319V38.039C197.426 37.7751 197.364 37.5119 197.229 37.284C197.173 37.2023 197.096 37.1364 197.007 37.0924C196.918 37.0484 196.819 37.0277 196.72 37.0323C196.591 37.0299 196.464 37.0526 196.345 37.0992C196.238 37.1414 196.138 37.1962 196.044 37.2624C195.962 37.3202 195.888 37.3892 195.824 37.4674C195.773 37.5357 195.729 37.5941 195.693 37.6422V40.2654C195.69 40.3621 195.704 40.4586 195.734 40.5506C195.764 40.6251 195.819 40.6867 195.889 40.7241C195.946 40.7555 196.005 40.7817 196.066 40.8024C196.135 40.8254 196.207 40.8416 196.279 40.8508V41.2072H193.491V40.8505C193.553 40.8437 193.628 40.8358 193.716 40.8259C193.784 40.8226 193.85 40.8061 193.911 40.7774C193.943 40.7619 193.972 40.74 193.995 40.713C194.018 40.6861 194.036 40.6546 194.046 40.6207C194.07 40.522 194.081 40.4205 194.078 40.319V38.039C194.096 37.7751 194.034 37.5118 193.899 37.284C193.843 37.2023 193.766 37.1364 193.677 37.0923C193.588 37.0483 193.489 37.0276 193.389 37.0323C193.261 37.0299 193.134 37.0526 193.014 37.0992C192.908 37.1413 192.808 37.1961 192.715 37.2624C192.632 37.3202 192.558 37.3892 192.495 37.4674C192.443 37.5357 192.399 37.5941 192.363 37.6422V40.2654C192.36 40.3614 192.375 40.4572 192.408 40.5475C192.437 40.6229 192.492 40.6854 192.563 40.7241C192.62 40.7552 192.68 40.7814 192.741 40.8024C192.81 40.8256 192.882 40.8418 192.954 40.8508V41.2072H190.03V40.8505C190.114 40.8437 190.198 40.8358 190.278 40.8259C190.35 40.8194 190.42 40.8031 190.488 40.7774C190.578 40.7506 190.655 40.6904 190.703 40.609C190.746 40.5186 190.766 40.419 190.761 40.319V37.4769C190.761 37.37 190.733 37.265 190.68 37.1722C190.63 37.0807 190.561 37.0011 190.478 36.939C190.409 36.8953 190.335 36.8627 190.256 36.8423C190.16 36.8142 190.061 36.7963 189.961 36.789V36.4319L192.289 36.3055L192.363 36.3791V37.0671H192.383C192.474 36.9855 192.583 36.889 192.708 36.7757C192.818 36.6757 192.936 36.5853 193.061 36.5055C193.205 36.4173 193.362 36.3516 193.526 36.3108C193.728 36.256 193.937 36.2295 194.146 36.2323C194.473 36.2204 194.796 36.3045 195.076 36.4741C195.317 36.6256 195.503 36.8505 195.606 37.1156L195.65 37.1153C195.744 37.0271 195.86 36.924 195.996 36.8058C196.114 36.7005 196.24 36.6045 196.373 36.5189C196.524 36.4282 196.687 36.3592 196.858 36.314C197.064 36.258 197.276 36.2305 197.489 36.2323C197.699 36.2193 197.909 36.2513 198.105 36.3261C198.301 36.4008 198.479 36.5166 198.626 36.6657C198.911 37.0127 199.052 37.4549 199.023 37.9025V40.274C199.019 40.3741 199.037 40.4739 199.078 40.5657C199.119 40.6443 199.189 40.7044 199.273 40.734C199.324 40.7553 199.39 40.7791 199.466 40.8024C199.553 40.827 199.641 40.8432 199.731 40.8508L199.731 41.2072Z" fill="white"/>
<path fill-rule="evenodd" clip-rule="evenodd" d="M206.133 38.8288C206.145 39.486 205.898 40.1214 205.444 40.5974C205.224 40.8378 204.954 41.028 204.653 41.1551C204.352 41.2822 204.028 41.3432 203.701 41.3341C203.444 41.341 203.187 41.309 202.939 41.2391C202.767 41.1872 202.604 41.109 202.456 41.0071L202.418 41.0067V42.3786C202.415 42.4831 202.441 42.5864 202.493 42.6774C202.541 42.761 202.616 42.8262 202.706 42.8625C202.827 42.9078 202.952 42.9406 203.079 42.9606C203.212 42.9853 203.346 43.0032 203.481 43.0142V43.3753H199.956V43.0138C200.038 43.0071 200.141 42.9957 200.264 42.9772C200.359 42.9655 200.452 42.9466 200.543 42.9206C200.589 42.9073 200.632 42.884 200.669 42.8524C200.705 42.8208 200.735 42.7815 200.755 42.7375C200.794 42.6442 200.813 42.5436 200.811 42.4423V37.4466C200.803 37.3487 200.778 37.2529 200.736 37.164C200.691 37.0774 200.624 37.0034 200.543 36.9489C200.463 36.9008 200.375 36.8654 200.284 36.844C200.18 36.817 200.073 36.7986 199.966 36.789V36.4318L202.345 36.3054L202.418 36.3684V36.91L202.456 36.9202C202.661 36.7087 202.904 36.5365 203.171 36.4122C203.415 36.2963 203.681 36.2348 203.951 36.2322C204.255 36.2193 204.557 36.2772 204.834 36.4014C205.111 36.5255 205.355 36.7125 205.548 36.9474C205.958 37.4861 206.165 38.1524 206.133 38.8288ZM204.381 38.8484C204.382 38.6141 204.364 38.3803 204.326 38.149C204.296 37.9405 204.232 37.7384 204.136 37.5507C204.056 37.3842 203.937 37.2399 203.788 37.1306C203.633 37.0227 203.447 36.9678 203.258 36.9741C203.082 36.9656 202.906 37.0036 202.749 37.0841C202.622 37.1575 202.509 37.2542 202.418 37.369V40.1369C202.447 40.2243 202.484 40.3087 202.529 40.389C202.575 40.4775 202.631 40.5603 202.696 40.6357C202.773 40.7209 202.868 40.7875 202.974 40.8307C203.083 40.8741 203.199 40.8957 203.316 40.8941C203.481 40.8896 203.641 40.8383 203.778 40.7462C203.915 40.6541 204.023 40.525 204.09 40.374C204.311 39.8972 204.411 39.3732 204.381 38.8484Z" fill="white"/>
<path fill-rule="evenodd" clip-rule="evenodd" d="M211.748 36.939C211.99 37.1639 212.178 37.4395 212.3 37.746C212.429 38.0688 212.493 38.4136 212.49 38.7611C212.493 39.1108 212.429 39.458 212.303 39.7843C212.183 40.0961 211.995 40.3773 211.753 40.6076C211.488 40.8557 211.175 41.0469 210.833 41.1694C210.44 41.3051 210.026 41.3711 209.61 41.3644C209.237 41.3685 208.867 41.3104 208.513 41.1926C208.187 41.0824 207.885 40.9085 207.627 40.681C207.376 40.4566 207.176 40.1809 207.041 39.8726C206.895 39.5329 206.821 39.166 206.827 38.796C206.82 38.4392 206.884 38.0846 207.015 37.7525C207.143 37.4446 207.335 37.1674 207.578 36.9392C207.835 36.7028 208.139 36.5229 208.47 36.4109C209.246 36.1599 210.081 36.1599 210.857 36.4109C211.186 36.5257 211.489 36.7053 211.748 36.939ZM210.498 40.3242C210.578 40.1099 210.631 39.8866 210.656 39.6594C210.694 39.358 210.711 39.0545 210.708 38.7509C210.706 38.4903 210.69 38.23 210.66 37.9711C210.64 37.7349 210.59 37.502 210.513 37.2778C210.448 37.0915 210.336 36.9251 210.188 36.7944C210.032 36.6773 209.842 36.6152 209.647 36.6176C209.452 36.62 209.263 36.6869 209.11 36.8078C208.966 36.9445 208.856 37.1135 208.79 37.301C208.716 37.5115 208.668 37.7304 208.648 37.9527C208.621 38.2118 208.608 38.4722 208.608 38.7328C208.608 39.0874 208.62 39.3807 208.643 39.6126C208.668 39.8525 208.724 40.0883 208.808 40.3141C208.872 40.4994 208.984 40.6645 209.132 40.7927C209.281 40.9043 209.461 40.9655 209.647 40.9676C209.833 40.9697 210.015 40.9125 210.167 40.8043C210.319 40.6778 210.434 40.5116 210.498 40.3242Z" fill="white"/>
<path fill-rule="evenodd" clip-rule="evenodd" d="M219.564 41.2072H216.624V40.8506C216.688 40.8438 216.761 40.8359 216.849 40.826C216.918 40.8221 216.986 40.8057 217.049 40.7775C217.116 40.7447 217.168 40.689 217.196 40.6208C217.231 40.5242 217.246 40.4217 217.241 40.3191V38.0341C217.259 37.7711 217.195 37.5091 217.058 37.2841C216.996 37.2005 216.914 37.1336 216.82 37.0896C216.725 37.0457 216.621 37.026 216.518 37.0324C216.394 37.0316 216.271 37.0513 216.154 37.0908C216.037 37.1326 215.926 37.1904 215.824 37.2626C215.74 37.3183 215.664 37.3855 215.598 37.4624C215.541 37.5306 215.493 37.5908 215.453 37.6423V40.2655C215.45 40.3629 215.467 40.46 215.502 40.5507C215.533 40.6262 215.59 40.6879 215.663 40.7242C215.725 40.757 215.79 40.7832 215.858 40.8025C215.933 40.8245 216.01 40.8407 216.088 40.8509V41.2072H213.119V40.8506C213.201 40.8438 213.283 40.8359 213.366 40.8242C213.438 40.8153 213.509 40.7997 213.577 40.7775C213.668 40.7531 213.746 40.6938 213.793 40.6125C213.835 40.5208 213.855 40.4202 213.851 40.3191V37.477C213.85 37.3729 213.824 37.2705 213.774 37.1791C213.724 37.0848 213.653 37.0027 213.567 36.939C213.499 36.8954 213.424 36.8628 213.346 36.8424C213.25 36.8142 213.151 36.7964 213.051 36.7891V36.432L215.379 36.3056L215.453 36.3792V37.0856H215.473C215.564 37.0051 215.674 36.9073 215.804 36.7941C215.918 36.6927 216.039 36.5997 216.166 36.5158C216.313 36.4258 216.472 36.3578 216.639 36.314C216.843 36.258 217.053 36.2306 217.264 36.2324C217.484 36.2156 217.705 36.2474 217.912 36.3255C218.118 36.4035 218.305 36.526 218.459 36.6842C218.736 37.02 218.878 37.4475 218.856 37.8824V40.2741C218.851 40.3732 218.87 40.472 218.911 40.5626C218.955 40.6418 219.026 40.7027 219.111 40.7341C219.162 40.7553 219.226 40.7792 219.303 40.8024C219.388 40.8266 219.476 40.8429 219.564 40.8509L219.564 41.2072Z" fill="white"/>
<path fill-rule="evenodd" clip-rule="evenodd" d="M225.268 40.0407C225.151 40.2304 225.013 40.4066 224.856 40.566C224.693 40.731 224.508 40.8729 224.306 40.9877C224.098 41.1073 223.876 41.2019 223.645 41.2695C223.394 41.336 223.136 41.3679 222.876 41.3645C222.451 41.374 222.028 41.3044 221.628 41.1593C221.304 41.0382 221.008 40.8502 220.761 40.6076C220.534 40.3754 220.36 40.0961 220.251 39.7893C220.137 39.4603 220.08 39.1142 220.083 38.766C220.082 38.1087 220.334 37.4763 220.786 36.9993C221.024 36.7569 221.309 36.5657 221.623 36.4376C221.982 36.2899 222.367 36.2168 222.755 36.2227C223.135 36.211 223.515 36.2668 223.876 36.3877C224.15 36.4865 224.398 36.6435 224.605 36.8477C224.789 37.0318 224.928 37.2567 225.01 37.5043C225.095 37.76 225.138 38.0281 225.136 38.2977V38.6143H221.836C221.801 39.15 221.936 39.6833 222.222 40.1377C222.477 40.4172 222.822 40.5977 223.198 40.6475C223.573 40.6972 223.954 40.6129 224.273 40.4095C224.519 40.2384 224.731 40.0224 224.898 39.7728L225.268 40.0407ZM223.403 38.1856C223.403 37.9887 223.393 37.7894 223.375 37.5845C223.362 37.413 223.327 37.2439 223.272 37.081C223.228 36.9472 223.15 36.8275 223.045 36.7343C222.941 36.6545 222.812 36.6132 222.681 36.6175C222.556 36.6188 222.432 36.6552 222.326 36.7227C222.22 36.7902 222.135 36.886 222.08 36.9993C221.903 37.3756 221.819 37.789 221.836 38.2044L223.403 38.1856Z" fill="white"/>
<path fill-rule="evenodd" clip-rule="evenodd" d="M232.183 41.2072H229.243V40.8506C229.307 40.8438 229.38 40.8359 229.468 40.826C229.537 40.8221 229.605 40.8057 229.668 40.7775C229.735 40.7448 229.787 40.6891 229.815 40.6208C229.85 40.5242 229.865 40.4216 229.86 40.3191V38.0341C229.878 37.7712 229.814 37.5091 229.677 37.2841C229.615 37.2005 229.533 37.1336 229.439 37.0897C229.344 37.0457 229.24 37.026 229.137 37.0324C229.013 37.0316 228.89 37.0514 228.773 37.0908C228.656 37.1327 228.545 37.1905 228.443 37.2626C228.359 37.3183 228.283 37.3855 228.217 37.4624C228.16 37.5306 228.112 37.5908 228.072 37.6423V40.2655C228.069 40.3629 228.086 40.46 228.122 40.5507C228.152 40.6262 228.209 40.6879 228.282 40.7242C228.344 40.757 228.409 40.7832 228.477 40.8025C228.552 40.8245 228.629 40.8407 228.707 40.8509V41.2072H225.739V40.8506C225.82 40.8438 225.902 40.8359 225.985 40.8242C226.057 40.8153 226.128 40.7997 226.197 40.7775C226.287 40.7531 226.365 40.6938 226.412 40.6125C226.455 40.5208 226.475 40.4202 226.47 40.3191V37.477C226.47 37.3729 226.443 37.2705 226.393 37.1791C226.343 37.0848 226.272 37.0028 226.187 36.939C226.118 36.8954 226.043 36.8628 225.965 36.8424C225.869 36.8142 225.77 36.7964 225.67 36.7891V36.432L227.998 36.3056L228.072 36.3792V37.0856H228.092C228.183 37.0051 228.293 36.9073 228.423 36.7941C228.537 36.6927 228.658 36.5997 228.785 36.5158C228.932 36.4258 229.092 36.3578 229.258 36.314C229.462 36.258 229.672 36.2306 229.883 36.2324C230.103 36.2156 230.325 36.2474 230.531 36.3255C230.738 36.4035 230.924 36.526 231.078 36.6842C231.356 37.02 231.497 37.4475 231.475 37.8824V40.2741C231.471 40.3732 231.489 40.472 231.53 40.5626C231.574 40.6418 231.645 40.7026 231.73 40.7341C231.782 40.7553 231.845 40.7792 231.922 40.8024C232.007 40.8266 232.095 40.8429 232.183 40.8509L232.183 41.2072Z" fill="white"/>
<path fill-rule="evenodd" clip-rule="evenodd" d="M236.271 40.9821C236.053 41.0773 235.829 41.1597 235.601 41.229C235.319 41.3083 235.026 41.3454 234.733 41.339C234.529 41.3558 234.324 41.3316 234.13 41.2677C233.936 41.2039 233.757 41.1018 233.603 40.9674C233.473 40.8249 233.374 40.6578 233.31 40.4759C233.247 40.2941 233.22 40.1014 233.233 39.9092V36.9101H232.354V36.382H233.253V34.9038H234.84V36.382H236.208V36.9101H234.849V39.5855C234.828 39.8654 234.882 40.1461 235.008 40.3973C235.075 40.4821 235.162 40.5484 235.262 40.5902C235.362 40.6319 235.47 40.6476 235.578 40.6357C235.664 40.6357 235.788 40.6292 235.943 40.6159C236.053 40.6104 236.163 40.5958 236.271 40.5725L236.271 40.9821Z" fill="white"/>
<path fill-rule="evenodd" clip-rule="evenodd" d="M238.873 41.3735C238.559 41.3739 238.247 41.3268 237.948 41.234C237.703 41.1649 237.468 41.0658 237.248 40.939L237.101 41.2706H236.72L236.656 39.4488H237.013C237.075 39.6234 237.157 39.7902 237.258 39.9457C237.368 40.1252 237.499 40.2913 237.648 40.4406C237.804 40.5891 237.981 40.7143 238.173 40.8126C238.369 40.9125 238.585 40.9645 238.805 40.9641C239.038 40.9814 239.271 40.9204 239.467 40.7907C239.542 40.7246 239.601 40.6418 239.639 40.5489C239.677 40.4561 239.692 40.3557 239.685 40.2557C239.689 40.14 239.654 40.0261 239.586 39.9323C239.513 39.8417 239.422 39.7674 239.318 39.7141C239.184 39.6449 239.044 39.5891 238.9 39.5474C238.75 39.502 238.563 39.4456 238.341 39.3807C238.148 39.3258 237.959 39.2602 237.773 39.184C237.594 39.1042 237.429 38.9981 237.281 38.869C237.134 38.7411 237.015 38.5846 236.93 38.409C236.838 38.2085 236.793 37.9896 236.798 37.769C236.794 37.5502 236.845 37.334 236.946 37.14C237.047 36.9459 237.195 36.7801 237.376 36.6575C237.823 36.356 238.355 36.2068 238.893 36.2323C239.168 36.23 239.443 36.2602 239.711 36.3224C239.925 36.3716 240.135 36.4373 240.338 36.5189L240.441 36.2323H240.811L240.89 37.8973H240.543C240.43 37.5582 240.228 37.2555 239.958 37.0206C239.718 36.7893 239.398 36.6578 239.065 36.6524C238.856 36.6402 238.649 36.6945 238.473 36.8074C238.404 36.8564 238.348 36.9217 238.31 36.9976C238.273 37.0736 238.255 37.1576 238.258 37.2423C238.252 37.3528 238.278 37.4628 238.334 37.5583C238.39 37.6539 238.473 37.7307 238.573 37.7791C238.854 37.916 239.15 38.0211 239.455 38.0924C239.926 38.1863 240.366 38.3972 240.735 38.7058C240.868 38.8327 240.973 38.9864 241.043 39.1566C241.112 39.3269 241.146 39.51 241.14 39.6939C241.149 39.9371 241.097 40.1786 240.987 40.3957C240.877 40.6127 240.713 40.798 240.511 40.9341C240.024 41.2471 239.451 41.4006 238.873 41.3735Z" fill="white"/>
<path fill-rule="evenodd" clip-rule="evenodd" d="M252.032 41.2075H249.162C249.084 41.119 248.982 41.0045 248.858 40.8627C248.735 40.7207 248.628 40.596 248.542 40.4843C248.242 40.7743 247.892 41.007 247.508 41.1711C247.16 41.3106 246.787 41.3814 246.412 41.3795C245.87 41.4013 245.338 41.226 244.915 40.8859C244.727 40.7303 244.576 40.5337 244.475 40.311C244.374 40.0883 244.325 39.8455 244.332 39.601C244.312 39.1438 244.471 38.6969 244.777 38.356C244.937 38.1656 245.124 38.0004 245.333 37.866C245.572 37.7116 245.821 37.5751 246.08 37.4578C245.839 37.1674 245.633 36.8496 245.467 36.511C245.354 36.2589 245.295 35.9858 245.293 35.7094C245.291 35.4832 245.343 35.2597 245.445 35.0578C245.547 34.8559 245.696 34.6815 245.88 34.5495C246.282 34.2418 246.776 34.0806 247.282 34.0928C247.722 34.073 248.157 34.2002 248.517 34.4545C248.667 34.5637 248.789 34.7078 248.871 34.8745C248.954 35.0411 248.995 35.2253 248.99 35.4112C248.994 35.742 248.895 36.0659 248.707 36.3378C248.452 36.6662 248.131 36.9381 247.765 37.1361C248.12 37.5905 248.393 37.9343 248.587 38.1627C248.782 38.3927 249.038 38.6942 249.362 39.0693C249.544 38.8076 249.698 38.5278 249.823 38.2345C249.913 38.0324 249.965 37.8155 249.977 37.5945C249.977 37.4961 249.903 37.4179 249.76 37.3577C249.561 37.2822 249.356 37.2259 249.147 37.1894V36.8177H251.877V37.1888C251.654 37.2021 251.434 37.2379 251.218 37.2959C251.059 37.3542 250.916 37.4496 250.802 37.5743C250.717 37.6686 250.645 37.7727 250.585 37.8844C250.499 38.0327 250.417 38.1761 250.338 38.3127C250.244 38.4776 250.142 38.6526 250.035 38.8343C249.917 39.0329 249.787 39.2238 249.645 39.406C249.874 39.6848 250.121 39.9481 250.385 40.1943C250.529 40.3319 250.688 40.4522 250.86 40.5526C251.028 40.6372 251.207 40.6972 251.392 40.7309C251.603 40.7751 251.817 40.8042 252.032 40.8177L252.032 41.2075ZM248.248 35.484C248.262 35.2414 248.188 35.002 248.04 34.8093C247.975 34.7296 247.893 34.6659 247.8 34.6232C247.706 34.5804 247.604 34.5597 247.502 34.5628C247.407 34.5586 247.312 34.5744 247.224 34.6091C247.135 34.6438 247.055 34.6966 246.988 34.7642C246.922 34.8353 246.871 34.9188 246.838 35.0098C246.804 35.1008 246.789 35.1975 246.793 35.2944C246.803 35.5193 246.865 35.7389 246.973 35.9361C247.135 36.2411 247.322 36.5326 247.53 36.8078C247.759 36.656 247.947 36.4491 248.075 36.206C248.189 35.9824 248.248 35.735 248.248 35.484ZM248.282 40.1674C248.009 39.8394 247.691 39.4567 247.328 39.0194C246.965 38.584 246.628 38.169 246.315 37.7744C246.145 37.9397 246.016 38.143 245.94 38.3676C245.866 38.5873 245.828 38.8176 245.827 39.0495C245.819 39.2445 245.851 39.4391 245.922 39.621C245.993 39.8029 246.101 39.9682 246.239 40.1063C246.377 40.2444 246.542 40.3524 246.724 40.4236C246.905 40.4947 247.1 40.5273 247.295 40.5195C247.471 40.5234 247.646 40.4974 247.813 40.4426C247.984 40.3786 248.143 40.2855 248.282 40.1674Z" fill="white"/>
<path fill-rule="evenodd" clip-rule="evenodd" d="M261.358 36.0125C261.367 36.364 261.284 36.7116 261.116 37.0208C260.956 37.3018 260.726 37.5375 260.45 37.7059C260.141 37.8951 259.801 38.0292 259.447 38.1025C259.029 38.1878 258.604 38.2285 258.178 38.224L257.613 38.2238V40.172C257.611 40.2776 257.633 40.3822 257.678 40.4776C257.735 40.5746 257.824 40.6483 257.93 40.686C258.033 40.7213 258.139 40.7486 258.246 40.7676C258.369 40.7941 258.493 40.8136 258.618 40.826V41.2073H254.863V40.8257C254.959 40.8175 255.083 40.8025 255.24 40.7857C255.351 40.7773 255.461 40.755 255.567 40.7192C255.669 40.686 255.758 40.6191 255.818 40.5293C255.864 40.4313 255.885 40.3239 255.88 40.216V35.329C255.882 35.227 255.862 35.1256 255.82 35.0326C255.764 34.9351 255.673 34.8616 255.567 34.8259C255.449 34.7781 255.328 34.7428 255.203 34.7208C255.051 34.689 254.938 34.6692 254.863 34.6593V34.2789H258.687C259.382 34.2324 260.077 34.3802 260.693 34.7058C260.911 34.8444 261.087 35.0387 261.204 35.2685C261.321 35.4983 261.374 35.7552 261.358 36.0125ZM259.453 36.2605C259.485 35.8492 259.374 35.4396 259.138 35.1008C258.991 34.9595 258.814 34.8524 258.62 34.787C258.427 34.7216 258.221 34.6995 258.018 34.7224L257.613 34.7222V37.7652H257.818C258.256 37.7961 258.69 37.6646 259.036 37.3958C259.184 37.2483 259.298 37.0703 259.37 36.8742C259.442 36.6781 259.47 36.4686 259.453 36.2605Z" fill="white"/>
<path fill-rule="evenodd" clip-rule="evenodd" d="M267.404 41.1035C267.239 41.1741 267.069 41.2316 266.895 41.2756C266.693 41.3281 266.484 41.3544 266.275 41.3538C265.97 41.3747 265.665 41.3131 265.392 41.1756C265.204 41.0597 265.066 40.8778 265.005 40.6656L264.977 40.6653C264.876 40.7663 264.769 40.861 264.657 40.9491C264.554 41.0268 264.443 41.0938 264.327 41.149C264.185 41.2166 264.037 41.2697 263.885 41.3074C263.69 41.3469 263.491 41.3642 263.292 41.359C262.94 41.3679 262.596 41.2489 262.325 41.0239C262.195 40.9168 262.091 40.7811 262.021 40.6274C261.951 40.4736 261.918 40.3059 261.923 40.1372C261.919 39.9538 261.949 39.7712 262.012 39.5989C262.069 39.4527 262.154 39.3192 262.262 39.2058C262.359 39.1009 262.473 39.0135 262.6 38.9472C262.737 38.8745 262.879 38.8105 263.024 38.7557C263.316 38.6487 263.667 38.5376 264.077 38.4223C264.384 38.3419 264.685 38.2382 264.977 38.1121L264.977 37.6419C264.977 37.5602 264.97 37.454 264.957 37.3207C264.948 37.2046 264.92 37.0908 264.873 36.984C264.828 36.878 264.753 36.7869 264.659 36.7206C264.545 36.644 264.41 36.606 264.274 36.6123C264.151 36.6081 264.028 36.629 263.914 36.6739C263.832 36.7065 263.754 36.7479 263.682 36.7972C263.702 36.8987 263.73 36.9985 263.765 37.0956C263.809 37.2199 263.832 37.3505 263.833 37.4823C263.83 37.553 263.815 37.6228 263.79 37.6889C263.765 37.7651 263.721 37.8336 263.662 37.8874C263.587 37.9513 263.503 38.0025 263.412 38.039C263.273 38.0805 263.128 38.0985 262.984 38.0923C262.759 38.1082 262.537 38.0372 262.363 37.8938C262.296 37.8283 262.243 37.7498 262.207 37.6631C262.171 37.5765 262.153 37.4834 262.153 37.3896C262.154 37.2957 262.174 37.203 262.212 37.117C262.249 37.0309 262.304 36.9534 262.372 36.889C262.525 36.7377 262.704 36.6156 262.9 36.529C263.126 36.4248 263.364 36.3487 263.609 36.3023C263.853 36.251 264.102 36.2242 264.352 36.2223C264.642 36.2206 264.932 36.2389 265.22 36.2773C265.47 36.3106 265.712 36.3897 265.934 36.5105C266.138 36.6262 266.304 36.798 266.413 37.0055C266.543 37.2682 266.605 37.5594 266.592 37.8522C266.592 38.2207 266.585 38.6569 266.57 39.1607C266.556 39.6652 266.548 39.9974 266.548 40.1573C266.543 40.2764 266.566 40.395 266.614 40.504C266.658 40.5886 266.73 40.6555 266.817 40.6939C266.9 40.7257 266.989 40.7416 267.078 40.7407C267.197 40.7452 267.305 40.7489 267.404 40.7489V41.1035ZM264.977 38.5603C264.794 38.6223 264.614 38.6938 264.434 38.7741C264.278 38.8396 264.131 38.9235 263.995 39.0241C263.874 39.1159 263.777 39.236 263.712 39.3738C263.64 39.5306 263.605 39.7015 263.609 39.8739C263.6 39.9727 263.61 40.0723 263.64 40.167C263.67 40.2617 263.718 40.3495 263.782 40.4254C263.838 40.4816 263.905 40.5258 263.978 40.5554C264.052 40.5849 264.131 40.5992 264.21 40.5973C264.365 40.6034 264.518 40.5653 264.652 40.4873C264.767 40.4138 264.87 40.3221 264.957 40.2157L264.977 38.5603Z" fill="white"/>
<path fill-rule="evenodd" clip-rule="evenodd" d="M272.642 37.2572C272.645 37.495 272.564 37.7262 272.412 37.9092C272.34 37.9996 272.247 38.072 272.142 38.1206C272.037 38.1693 271.923 38.1928 271.807 38.1894C271.592 38.196 271.38 38.1328 271.203 38.0094C271.121 37.9481 271.056 37.8675 271.013 37.7746C270.97 37.6818 270.951 37.5797 270.957 37.4776C270.954 37.388 270.963 37.2985 270.982 37.2111C270.998 37.1472 271.012 37.0874 271.025 37.0325C270.857 37.0451 270.694 37.0989 270.552 37.1893C270.381 37.2899 270.232 37.4223 270.112 37.5792L270.112 40.2606C270.109 40.3581 270.127 40.4551 270.167 40.5443C270.205 40.6215 270.268 40.6833 270.347 40.7193C270.458 40.7662 270.575 40.7966 270.695 40.8093C270.857 40.8343 270.974 40.8477 271.045 40.8511V41.2074H267.779V40.8507C267.86 40.8439 267.942 40.8361 268.025 40.8244C268.097 40.8155 268.168 40.7999 268.237 40.7777C268.327 40.7533 268.405 40.694 268.452 40.6127C268.495 40.5211 268.515 40.4204 268.51 40.3193V37.4772C268.512 37.3668 268.484 37.2579 268.429 37.1626C268.377 37.0752 268.309 36.9992 268.227 36.9392C268.158 36.8955 268.084 36.8629 268.005 36.8425C267.909 36.8144 267.81 36.7965 267.71 36.7893L267.71 36.4321L270.039 36.3057L270.112 36.3794V37.0858H270.132C270.335 36.8442 270.577 36.6376 270.847 36.4744C271.084 36.3296 271.357 36.2524 271.635 36.251C271.77 36.245 271.904 36.2669 272.03 36.3154C272.155 36.3639 272.269 36.4379 272.365 36.5328C272.458 36.6285 272.53 36.7421 272.578 36.8666C272.625 36.9911 272.647 37.124 272.642 37.2572Z" fill="white"/>
<path fill-rule="evenodd" clip-rule="evenodd" d="M276.612 40.9821C276.394 41.0773 276.17 41.1597 275.942 41.229C275.66 41.3083 275.367 41.3454 275.074 41.339C274.87 41.3558 274.665 41.3316 274.471 41.2677C274.277 41.2039 274.098 41.1018 273.944 40.9674C273.814 40.8249 273.715 40.6578 273.651 40.476C273.587 40.2941 273.561 40.1014 273.574 39.9092L273.574 36.9101H272.695V36.382H273.594V34.9038H275.18V36.382H276.549V36.9101H275.191V39.5855C275.169 39.8654 275.223 40.146 275.348 40.3973C275.416 40.4821 275.503 40.5484 275.603 40.5902C275.702 40.6319 275.811 40.6476 275.919 40.6357C276.005 40.6357 276.129 40.6292 276.284 40.6159C276.394 40.6104 276.504 40.5958 276.612 40.5725V40.9821Z" fill="white"/>
<path fill-rule="evenodd" clip-rule="evenodd" d="M279.213 41.3735C278.9 41.3738 278.588 41.3268 278.289 41.234C278.044 41.1649 277.809 41.0658 277.589 40.939L277.442 41.2706H277.061L276.997 39.4488H277.354C277.416 39.6235 277.498 39.7902 277.599 39.9457C277.709 40.1252 277.84 40.2913 277.989 40.4406C278.145 40.589 278.322 40.7142 278.514 40.8125C278.709 40.9125 278.926 40.9645 279.145 40.9641C279.379 40.9815 279.612 40.9205 279.807 40.7907C279.883 40.7246 279.942 40.6418 279.979 40.549C280.017 40.4561 280.033 40.3557 280.025 40.2557C280.03 40.1399 279.995 40.026 279.927 39.9323C279.854 39.8417 279.762 39.7674 279.659 39.7141C279.525 39.6449 279.385 39.5891 279.24 39.5474C279.09 39.502 278.904 39.4456 278.682 39.3807C278.489 39.3258 278.299 39.2601 278.114 39.184C277.935 39.1042 277.769 38.9981 277.622 38.869C277.475 38.7411 277.355 38.5846 277.27 38.409C277.178 38.2085 277.133 37.9896 277.139 37.769C277.135 37.5502 277.186 37.3341 277.287 37.14C277.388 36.9459 277.536 36.7801 277.717 36.6574C278.163 36.356 278.695 36.2069 279.234 36.2323C279.509 36.2299 279.784 36.2602 280.052 36.3224C280.266 36.3716 280.475 36.4373 280.679 36.5189L280.782 36.2323H281.152L281.23 37.8973H280.884C280.77 37.5581 280.568 37.2555 280.299 37.0206C280.058 36.7893 279.739 36.6577 279.405 36.6523C279.197 36.6403 278.99 36.6945 278.814 36.8074C278.744 36.8563 278.689 36.9217 278.651 36.9976C278.614 37.0736 278.596 37.1576 278.599 37.2422C278.592 37.3528 278.619 37.4628 278.675 37.5583C278.731 37.6539 278.814 37.7307 278.914 37.7791C279.195 37.9159 279.491 38.021 279.795 38.0923C280.267 38.1862 280.707 38.3972 281.075 38.7057C281.209 38.8327 281.314 38.9863 281.383 39.1566C281.453 39.3269 281.486 39.51 281.48 39.6939C281.49 39.937 281.437 40.1786 281.327 40.3956C281.217 40.6127 281.054 40.798 280.852 40.9341C280.365 41.2471 279.792 41.4006 279.213 41.3735Z" fill="white"/>
<path fill-rule="evenodd" clip-rule="evenodd" d="M165.973 0H171.352V1.415H169.547V5.726H167.777V1.415H165.973V0Z" fill="white"/>
<path fill-rule="evenodd" clip-rule="evenodd" d="M172.133 0H174.461L175.36 3.484L176.255 0H178.574V5.726H177.129V1.36L176.008 5.726H174.7L173.583 1.36V5.726H172.133V0Z" fill="white"/>
</g>
<defs>
<clipPath id="clip0_4075_770">
<rect width="281.48" height="44.202" fill="white"/>
</clipPath>
</defs>
</svg>
