<svg width="282" height="45" viewBox="0 0 282 45" fill="none" xmlns="http://www.w3.org/2000/svg">
<g clip-path="url(#clip0_4035_68)">
<path fill-rule="evenodd" clip-rule="evenodd" d="M61.5248 28.2318L61.5245 15.3045H67.3106L67.3109 16.9907C67.7514 16.3218 68.3618 15.7819 69.0794 15.4263C69.8106 15.0688 70.6209 14.9041 71.4336 14.9478L71.4333 20.1865C71.2339 20.0771 71.0243 19.9874 70.8074 19.9186C70.5786 19.8463 70.3399 19.8098 70.0999 19.8106C69.7237 19.8021 69.3513 19.8869 69.0159 20.0573C68.6804 20.2277 68.3924 20.4786 68.1775 20.7875C67.7184 21.4689 67.4853 22.2775 67.511 23.0988L67.5113 28.2323L61.5248 28.2318Z" fill="white"/>
<path fill-rule="evenodd" clip-rule="evenodd" d="M77.6273 23.6381C77.1838 23.1101 76.963 22.4303 77.0116 21.7424C76.9857 21.069 77.204 20.409 77.6265 19.884C77.824 19.6462 78.0734 19.4568 78.3555 19.3304C78.6376 19.2039 78.9449 19.1438 79.2539 19.1546C79.5587 19.1463 79.8614 19.2078 80.1388 19.3343C80.4163 19.4608 80.6612 19.649 80.8549 19.8845C81.2771 20.4109 81.5023 21.0682 81.4915 21.7429C81.5254 22.4321 81.298 23.1088 80.8546 23.6376C80.6571 23.8676 80.4111 24.051 80.1344 24.1747C79.8576 24.2985 79.557 24.3595 79.2539 24.3533C78.9468 24.3617 78.6416 24.3019 78.3604 24.1782C78.0791 24.0545 77.8288 23.8701 77.6273 23.6381ZM81.3342 15.2913V16.6828C80.8581 16.0835 80.2555 15.5968 79.5694 15.2576C78.4416 14.7388 77.1752 14.6032 75.9632 14.8714C74.7512 15.1396 73.6602 15.7969 72.8566 16.7431C71.7191 18.1535 71.139 19.9325 71.2264 21.7423C71.1209 23.6197 71.7481 25.4648 72.976 26.8889C73.4937 27.4828 74.1331 27.9584 74.8508 28.2834C75.5685 28.6084 76.3477 28.7752 77.1356 28.7725C77.9207 28.7763 78.6986 28.6223 79.4231 28.3196C80.1673 28.0009 80.8231 27.5065 81.3342 26.8787V28.2195L87.1232 28.2187L87.1234 15.2907L81.3342 15.2913Z" fill="white"/>
<path fill-rule="evenodd" clip-rule="evenodd" d="M94.5635 23.5873C94.1473 23.0653 93.9363 22.4091 93.9699 21.7423C93.9392 21.0838 94.1506 20.4368 94.564 19.9233C94.7531 19.697 94.9912 19.5168 95.2603 19.3962C95.5294 19.2756 95.8224 19.2179 96.1171 19.2274C96.4061 19.2186 96.6931 19.2767 96.9558 19.3973C97.2185 19.5179 97.4498 19.6976 97.6314 19.9225C98.0365 20.4402 98.2429 21.0858 98.2134 21.7426C98.2502 22.412 98.0436 23.0722 97.6317 23.6013C97.4479 23.8229 97.2159 23.9996 96.9533 24.1177C96.6908 24.2359 96.4046 24.2924 96.1169 24.283C95.8221 24.2925 95.5291 24.2349 95.2599 24.1143C94.9908 23.9938 94.7526 23.8136 94.5635 23.5873ZM97.8554 8.5896V16.4481C97.3797 15.906 96.7927 15.473 96.1344 15.1785C95.444 14.8784 94.6978 14.728 93.945 14.7374C93.1439 14.7183 92.3496 14.8887 91.6268 15.2346C90.904 15.5806 90.2731 16.0923 89.7854 16.7282C88.6814 18.1606 88.1143 19.9348 88.1827 21.7421C88.0931 23.5793 88.678 25.386 89.8274 26.8221C90.3252 27.4356 90.9545 27.9295 91.6689 28.2671C92.3832 28.6047 93.1643 28.7775 93.9544 28.7726C94.7143 28.7738 95.4659 28.6149 96.1603 28.3063C96.8907 27.9771 97.5379 27.4881 98.0541 26.8754V28.2196L103.844 28.2192L103.844 8.59022L97.8554 8.5896Z" fill="white"/>
<path fill-rule="evenodd" clip-rule="evenodd" d="M105.861 15.2912L111.847 15.2917V28.2191L105.862 28.2195L105.861 15.2912ZM105.482 11.1883C105.481 10.7849 105.57 10.3862 105.741 10.0209C105.912 9.65553 106.162 9.33256 106.473 9.07507C107.134 8.50677 107.976 8.19428 108.848 8.19434C109.719 8.19439 110.562 8.507 111.223 9.07538C111.536 9.33241 111.788 9.65561 111.961 10.0217C112.134 10.3878 112.224 10.7878 112.224 11.1927C112.224 11.5977 112.134 11.9976 111.961 12.3637C111.788 12.7298 111.536 13.053 111.223 13.3101C110.56 13.8738 109.718 14.1834 108.848 14.1834C107.978 14.1835 107.136 13.874 106.473 13.3104C106.16 13.0532 105.908 12.7291 105.737 12.3618C105.565 11.9946 105.478 11.5936 105.482 11.1883Z" fill="white"/>
<path fill-rule="evenodd" clip-rule="evenodd" d="M119.278 23.2814C118.922 22.8483 118.735 22.3016 118.751 21.7416C118.738 21.1905 118.925 20.6534 119.278 20.2296C119.471 20.0299 119.703 19.8712 119.959 19.7628C120.215 19.6544 120.49 19.5986 120.768 19.5986C121.046 19.5986 121.321 19.6545 121.577 19.7629C121.833 19.8714 122.064 20.0302 122.258 20.2298C122.618 20.6503 122.81 21.1888 122.797 21.7422C122.813 22.304 122.621 22.852 122.258 23.2813C122.064 23.4804 121.832 23.6386 121.577 23.7467C121.321 23.8547 121.046 23.9104 120.768 23.9104C120.49 23.9104 120.215 23.8547 119.959 23.7467C119.703 23.6386 119.471 23.4805 119.278 23.2814ZM126.404 26.9296C127.134 26.2842 127.709 25.4826 128.087 24.5844C128.464 23.6861 128.635 22.7144 128.585 21.7414C128.638 20.7741 128.47 19.8074 128.096 18.9141C127.721 18.0208 127.148 17.2242 126.421 16.5842C124.781 15.3837 122.801 14.7366 120.769 14.7366C118.736 14.7366 116.757 15.3837 115.117 16.5842C114.393 17.2264 113.823 18.0239 113.45 18.917C113.078 19.8102 112.912 20.7761 112.965 21.7424C112.898 22.7135 113.056 23.6868 113.428 24.5865C113.799 25.4863 114.373 26.2882 115.105 26.9298C116.715 28.1992 118.725 28.8523 120.774 28.7716C122.811 28.851 124.808 28.1974 126.404 26.9296Z" fill="white"/>
<path fill-rule="evenodd" clip-rule="evenodd" d="M129.649 28.2191V8.59009H135.633V28.2191H129.649Z" fill="white"/>
<path fill-rule="evenodd" clip-rule="evenodd" d="M143.136 23.638C142.689 23.1115 142.469 22.4302 142.522 21.7419C142.495 21.0687 142.712 20.4084 143.135 19.8835C143.332 19.6456 143.582 19.4561 143.864 19.3297C144.146 19.2033 144.453 19.1434 144.762 19.1545C145.066 19.1461 145.369 19.2074 145.646 19.3338C145.922 19.4602 146.167 19.6482 146.36 19.8835C146.783 20.4097 147.01 21.0671 147.001 21.7425C147.035 22.4324 146.806 23.1096 146.361 23.6377C146.164 23.8676 145.918 24.051 145.642 24.1747C145.365 24.2984 145.065 24.3592 144.762 24.353C144.455 24.3618 144.15 24.3022 143.869 24.1786C143.587 24.0549 143.337 23.8703 143.136 23.638ZM146.842 15.2911L146.843 16.6831C146.367 16.0829 145.763 15.5956 145.076 15.2565C143.948 14.7379 142.681 14.6025 141.469 14.8709C140.257 15.1392 139.166 15.7967 138.362 16.7429C137.226 18.1543 136.647 19.9329 136.733 21.7424C136.629 23.6198 137.257 25.4644 138.485 26.8879C139.003 27.4822 139.642 27.958 140.36 28.2832C141.078 28.6084 141.857 28.7752 142.645 28.7724C143.429 28.7749 144.206 28.621 144.929 28.3197C145.674 28.0007 146.33 27.5064 146.842 26.8788V28.219L152.63 28.2185L152.631 15.2905L146.842 15.2911Z" fill="white"/>
<path fill-rule="evenodd" clip-rule="evenodd" d="M160.626 23.5873C160.209 23.0656 159.998 22.4091 160.032 21.7423C160.006 21.091 160.211 20.4515 160.611 19.9366C160.8 19.7144 161.035 19.536 161.3 19.4136C161.565 19.2912 161.854 19.2279 162.146 19.2279C162.438 19.2279 162.726 19.2912 162.991 19.4136C163.256 19.536 163.491 19.7144 163.68 19.9366C164.09 20.4473 164.3 21.0888 164.274 21.7428C164.291 22.412 164.071 23.0658 163.653 23.5882C163.472 23.8108 163.243 23.9891 162.983 24.1096C162.723 24.23 162.439 24.2894 162.153 24.2832C161.862 24.2907 161.574 24.2319 161.309 24.1113C161.045 23.9908 160.811 23.8116 160.626 23.5873ZM154.402 8.59009V28.2195L160.191 28.2191L160.19 26.8843C160.663 27.5188 161.294 28.0188 162.019 28.3351C162.74 28.6323 163.513 28.7809 164.292 28.7719C165.064 28.7691 165.826 28.5979 166.525 28.2703C167.224 27.9428 167.843 27.4667 168.339 26.8753C169.546 25.4463 170.162 23.6103 170.061 21.7423C170.128 19.9334 169.556 18.1585 168.447 16.7281C167.96 16.0946 167.331 15.5844 166.611 15.2385C165.891 14.8926 165.099 14.7207 164.301 14.7367C163.543 14.7283 162.792 14.8789 162.097 15.1786C161.438 15.4661 160.854 15.9002 160.389 16.4477L160.389 8.59009H154.402Z" fill="white"/>
<path fill-rule="evenodd" clip-rule="evenodd" d="M70.035 41.2073H66.2901V40.8257C66.3718 40.8207 66.49 40.8109 66.6467 40.7976C66.7566 40.7929 66.8653 40.7733 66.9699 40.7393C67.0719 40.7043 67.1593 40.6362 67.2182 40.5459C67.2669 40.4518 67.2905 40.3468 67.2868 40.2409V37.8525H64.3283V40.1874C64.3264 40.2906 64.3505 40.3926 64.3983 40.4842C64.4526 40.5785 64.5381 40.651 64.64 40.6892C64.7432 40.7272 64.8498 40.7551 64.9584 40.7724C65.0786 40.7985 65.2005 40.8164 65.3232 40.8261V41.2074H61.5784V40.8258C61.66 40.824 61.7799 40.8128 61.9367 40.7943C62.0538 40.7858 62.1695 40.764 62.2817 40.7294C62.3846 40.6975 62.4719 40.6285 62.5266 40.5357C62.5737 40.4412 62.5972 40.3366 62.5949 40.231V35.329C62.5977 35.2294 62.5766 35.1306 62.5334 35.0408C62.4739 34.947 62.3856 34.8751 62.2817 34.8358C62.1622 34.7846 62.0376 34.746 61.9101 34.7207C61.8008 34.6936 61.6901 34.6731 61.5784 34.6592V34.2788H65.3233V34.6592C65.2018 34.6683 65.081 34.685 64.9616 34.7091C64.8531 34.7272 64.7457 34.7517 64.6401 34.7825C64.5861 34.796 64.5356 34.8209 64.4922 34.8557C64.4487 34.8905 64.4133 34.9343 64.3884 34.9841C64.3484 35.0773 64.328 35.1777 64.3283 35.2792V37.3507H67.2868V35.329C67.2898 35.2292 67.268 35.1302 67.2233 35.0408C67.1627 34.9474 67.074 34.8756 66.9699 34.8358C66.8606 34.7878 66.7468 34.7509 66.63 34.7258C66.5182 34.6967 66.4047 34.6745 66.2902 34.6592V34.2788H70.035V34.6592C69.9172 34.6669 69.7998 34.6808 69.6834 34.7008C69.5649 34.7192 69.4479 34.7466 69.3334 34.7825C69.2799 34.7962 69.23 34.8211 69.1869 34.8555C69.1438 34.89 69.1085 34.9332 69.0834 34.9823C69.0408 35.0754 69.0191 35.1768 69.0199 35.2792V40.1873C69.017 40.2899 69.0388 40.3917 69.0834 40.4841C69.1408 40.5791 69.229 40.6515 69.3334 40.6891C69.4424 40.7314 69.5558 40.7611 69.6715 40.7776C69.7917 40.8006 69.913 40.8168 70.035 40.826V41.2073Z" fill="white"/>
<path fill-rule="evenodd" clip-rule="evenodd" d="M73.7419 41.2073H70.6569V40.8506C70.7416 40.8438 70.825 40.836 70.9052 40.826C70.977 40.8196 71.0476 40.8032 71.115 40.7775C71.2063 40.7498 71.2845 40.69 71.3352 40.6091C71.3815 40.5197 71.4033 40.4197 71.3984 40.3191V37.477C71.4014 37.3718 71.3743 37.2678 71.3202 37.1775C71.272 37.094 71.2053 37.0228 71.1252 36.9692C71.0425 36.9197 70.9533 36.8821 70.8601 36.8574C70.7544 36.8235 70.6454 36.8006 70.535 36.7892V36.432L72.9269 36.3056L73 36.3793V40.2554C72.9973 40.3571 73.0227 40.4577 73.0734 40.5459C73.1223 40.6264 73.196 40.689 73.2834 40.7242C73.3532 40.7552 73.425 40.7813 73.4983 40.8025C73.578 40.8253 73.6594 40.8415 73.7418 40.851L73.7419 41.2073ZM73.0301 34.5473C73.0313 34.6671 73.0063 34.7858 72.9568 34.895C72.9073 35.0041 72.8345 35.1011 72.7435 35.1791C72.5577 35.3475 72.3159 35.4407 72.0652 35.4407C71.8144 35.4407 71.5726 35.3475 71.3868 35.1791C71.2964 35.1008 71.224 35.0038 71.1748 34.8947C71.1256 34.7857 71.1006 34.6672 71.1017 34.5476C71.1007 34.4275 71.1257 34.3085 71.1749 34.199C71.2241 34.0894 71.2964 33.9917 71.3868 33.9126C71.5728 33.7431 71.8153 33.6492 72.0669 33.6492C72.3185 33.6492 72.561 33.7431 72.7469 33.9126C72.8368 33.992 72.9086 34.0897 72.9574 34.1992C73.0063 34.3087 73.031 34.4274 73.0301 34.5473Z" fill="white"/>
<path fill-rule="evenodd" clip-rule="evenodd" d="M79.6603 36.9101H78.5868C78.7072 37.0439 78.8036 37.1975 78.872 37.364C78.935 37.5227 78.9672 37.6919 78.967 37.8626C78.967 38.0863 78.9047 38.3056 78.787 38.4959C78.6682 38.6901 78.5062 38.8543 78.3136 38.9758C78.0972 39.1099 77.8617 39.2105 77.6152 39.2742C77.331 39.3473 77.0386 39.3831 76.7452 39.3808L75.9504 39.3806C75.9005 39.4209 75.8567 39.4682 75.8203 39.5209C75.7775 39.5727 75.7529 39.6372 75.7503 39.7043C75.7451 39.7651 75.7586 39.8261 75.789 39.8791C75.8194 39.932 75.8652 39.9744 75.9203 40.0007C76.119 40.0716 76.3296 40.1033 76.5403 40.094C76.8371 40.1005 77.1366 40.1128 77.4386 40.1308C77.7419 40.1484 77.9586 40.1589 78.0886 40.1624C78.2805 40.173 78.4698 40.2118 78.6505 40.2774C78.8247 40.3377 78.988 40.4261 79.1338 40.5391C79.2873 40.6561 79.4135 40.8052 79.5037 40.9759C79.6046 41.1642 79.6551 41.3754 79.6502 41.589C79.6518 41.8327 79.5904 42.0727 79.4719 42.2857C79.3414 42.5172 79.1546 42.7121 78.9288 42.8524C78.6432 43.0302 78.3308 43.1608 78.0036 43.2391C77.5652 43.338 77.1164 43.3839 76.6671 43.3757C76.0012 43.4084 75.3359 43.3017 74.7137 43.0625C74.5195 42.994 74.3511 42.8674 74.2315 42.6998C74.1119 42.5322 74.0469 42.3318 74.0453 42.1259C74.0457 41.9979 74.0793 41.8721 74.1426 41.7609C74.206 41.6496 74.2971 41.5566 74.407 41.4909C74.7489 41.2976 75.1378 41.2029 75.5304 41.2174V41.1587C75.2687 41.0802 75.0286 40.9423 74.8288 40.7559C74.7495 40.6809 74.6863 40.5904 74.643 40.4901C74.5997 40.3898 74.5773 40.2818 74.5771 40.1726C74.573 40.0494 74.608 39.928 74.6771 39.8259C74.7471 39.728 74.834 39.6433 74.9337 39.5759C75.0369 39.5089 75.1484 39.4556 75.2654 39.4174C75.3971 39.374 75.5054 39.3392 75.5936 39.3124V39.2592C75.2271 39.1419 74.8943 38.9378 74.6236 38.6642C74.4161 38.4266 74.3055 38.1196 74.3137 37.8042C74.312 37.5715 74.3724 37.3425 74.4887 37.1409C74.605 36.9393 74.773 36.7725 74.9754 36.6575C75.4803 36.3536 76.0632 36.2042 76.6521 36.2275C76.8677 36.2267 77.0829 36.2452 77.2952 36.2825C77.5022 36.3205 77.6589 36.3538 77.7655 36.3822L79.6605 36.382L79.6603 36.9101ZM77.3702 37.8422C77.3848 37.531 77.323 37.2209 77.1902 36.9391C77.1488 36.8638 77.0927 36.7976 77.0252 36.7445C76.9577 36.6913 76.8801 36.6524 76.7972 36.6298C76.7143 36.6073 76.6278 36.6017 76.5426 36.6133C76.4575 36.625 76.3756 36.6536 76.3018 36.6976C76.2033 36.7628 76.1239 36.8531 76.0719 36.9592C76.0133 37.0816 75.975 37.2128 75.9585 37.3475C75.9397 37.499 75.9302 37.6515 75.9302 37.8042C75.9185 38.1062 75.9821 38.4063 76.1153 38.6776C76.1609 38.7795 76.235 38.8661 76.3288 38.9267C76.4226 38.9874 76.532 39.0195 76.6437 39.0191C76.7529 39.0223 76.8609 38.9954 76.9558 38.9413C77.0508 38.8872 77.129 38.808 77.182 38.7124C77.3227 38.4449 77.3878 38.144 77.3702 37.8422ZM78.1903 41.9439C78.1891 41.8284 78.1574 41.7153 78.0984 41.616C77.9978 41.4788 77.85 41.3838 77.6834 41.3492C77.4912 41.3231 77.2974 41.3103 77.1034 41.3109C76.8353 41.3039 76.467 41.3005 75.9985 41.3007C75.8837 41.3985 75.7872 41.5159 75.7136 41.6474C75.6331 41.7955 75.5934 41.9623 75.5985 42.1307C75.6009 42.2242 75.6243 42.3159 75.6668 42.3992C75.7184 42.5045 75.7917 42.5976 75.882 42.6724C75.9954 42.767 76.1237 42.8419 76.2618 42.8941C76.4673 42.957 76.6821 42.9846 76.8968 42.9757C77.2352 42.9978 77.572 42.9121 77.8586 42.7308C77.9739 42.6367 78.0645 42.5158 78.1223 42.3786C78.1801 42.2414 78.2035 42.0922 78.1903 41.9439Z" fill="white"/>
<path fill-rule="evenodd" clip-rule="evenodd" d="M86.307 41.2073H83.3669V40.8506C83.4321 40.8438 83.5086 40.8359 83.5971 40.826C83.6645 40.8222 83.7307 40.8058 83.7921 40.7775C83.8578 40.7451 83.9089 40.6892 83.9352 40.6208C83.9677 40.5237 83.9819 40.4214 83.9769 40.3191V38.0341C83.996 37.7699 83.93 37.5065 83.7887 37.2824C83.7268 37.2001 83.6457 37.1342 83.5524 37.0906C83.4592 37.047 83.3566 37.027 83.2538 37.0324C83.1303 37.0318 83.0075 37.0515 82.8904 37.0908C82.7733 37.1333 82.6624 37.191 82.5604 37.2626C82.4762 37.3187 82.3999 37.3859 82.3336 37.4624C82.277 37.5307 82.2288 37.5908 82.1902 37.6423V40.2655C82.1867 40.3624 82.2015 40.4592 82.2336 40.5507C82.2679 40.6257 82.3267 40.6869 82.4003 40.7242C82.4607 40.7581 82.525 40.7844 82.5919 40.8025C82.6685 40.8243 82.7465 40.8405 82.8255 40.8509V41.2073H79.8554V40.8506C79.9404 40.8438 80.0237 40.8359 80.102 40.826C80.1749 40.8189 80.2466 40.8026 80.3154 40.7775C80.4049 40.7506 80.4807 40.6903 80.5272 40.6091C80.5687 40.5183 80.588 40.4189 80.5836 40.3191V34.874C80.581 34.7597 80.5562 34.6471 80.5104 34.5423C80.4702 34.4359 80.3988 34.3441 80.3055 34.279C80.2184 34.2276 80.1221 34.1937 80.022 34.179C79.9126 34.1563 79.8018 34.1408 79.6904 34.1326V33.7754L82.1171 33.6489L82.1902 33.7272V37.0857H82.2104C82.3337 36.9754 82.4454 36.8758 82.5437 36.7858C82.6572 36.686 82.7788 36.5957 82.9071 36.5159C83.0539 36.4264 83.2128 36.3585 83.3788 36.3141C83.5834 36.2577 83.7948 36.2303 84.007 36.2324C84.2262 36.2158 84.4464 36.2479 84.6518 36.3262C84.8572 36.4046 85.0428 36.5273 85.1953 36.6857C85.472 37.0213 85.614 37.4479 85.5938 37.8824V40.2741C85.5897 40.3731 85.6079 40.4717 85.6471 40.5626C85.6915 40.6415 85.7622 40.7023 85.8469 40.7341C85.9104 40.761 85.9756 40.7839 86.0419 40.8025C86.1291 40.8247 86.2176 40.8409 86.307 40.8509V41.2073Z" fill="white"/>
<path fill-rule="evenodd" clip-rule="evenodd" d="M95.8422 36.0125C95.8512 36.364 95.7678 36.7116 95.6004 37.0208C95.4396 37.3018 95.2102 37.5375 94.9337 37.7059C94.6247 37.8951 94.2853 38.0292 93.9305 38.1025C93.5132 38.1878 93.0879 38.2285 92.662 38.224L92.0971 38.2238V40.172C92.0947 40.2776 92.1169 40.3822 92.162 40.4776C92.2187 40.5746 92.3079 40.6483 92.4137 40.686C92.517 40.7213 92.6228 40.7486 92.7303 40.7676C92.8531 40.7941 92.9773 40.8136 93.1022 40.826V41.2073H89.3472V40.8257C89.4422 40.8175 89.5672 40.8025 89.7237 40.7857C89.835 40.7773 89.9448 40.755 90.0505 40.7192C90.1534 40.686 90.242 40.6191 90.3022 40.5293C90.3475 40.4313 90.3686 40.3239 90.3637 40.216V35.329C90.3664 35.227 90.346 35.1256 90.3039 35.0326C90.2475 34.9351 90.1574 34.8615 90.0505 34.8259C89.9334 34.7781 89.8116 34.7428 89.6871 34.7208C89.5354 34.689 89.4221 34.6692 89.3472 34.6593V34.2789H93.1706C93.8661 34.2324 94.5608 34.3802 95.1772 34.7058C95.3946 34.8444 95.5708 35.0387 95.6878 35.2685C95.8047 35.4983 95.858 35.7552 95.8422 36.0125ZM93.937 36.2605C93.9687 35.8492 93.8575 35.4396 93.6221 35.1008C93.4745 34.9596 93.2977 34.8524 93.1042 34.787C92.9106 34.7216 92.7051 34.6996 92.5021 34.7224L92.097 34.7222V37.7652H92.302C92.7397 37.7961 93.1735 37.6645 93.5203 37.3958C93.6682 37.2483 93.7821 37.0703 93.8541 36.8742C93.926 36.6781 93.9544 36.4686 93.937 36.2605Z" fill="white"/>
<path fill-rule="evenodd" clip-rule="evenodd" d="M101.554 40.0405C101.436 40.2302 101.298 40.4063 101.142 40.5657C100.979 40.7307 100.794 40.8726 100.592 40.9875C100.384 41.1071 100.161 41.2016 99.9306 41.2692C99.68 41.3357 99.4214 41.3677 99.1621 41.3642C98.7369 41.3737 98.3136 41.3042 97.9137 41.159C97.5894 41.0379 97.2942 40.85 97.0472 40.6074C96.8194 40.3752 96.6453 40.0958 96.5372 39.789C96.4228 39.4601 96.3658 39.1139 96.3688 38.7657C96.3681 38.1085 96.6199 37.476 97.0721 36.9991C97.3097 36.7567 97.5945 36.5655 97.9089 36.4373C98.2676 36.2897 98.6526 36.2166 99.0405 36.2225C99.4212 36.2107 99.801 36.2666 100.162 36.3875C100.435 36.4863 100.684 36.6432 100.891 36.8475C101.075 37.0316 101.214 37.2565 101.295 37.504C101.381 37.7598 101.424 38.0278 101.422 38.2974V38.6141H98.1221C98.0864 39.1498 98.2213 39.6831 98.5073 40.1374C98.7626 40.4169 99.1082 40.5975 99.4835 40.6472C99.8588 40.6969 100.24 40.6127 100.559 40.4093C100.805 40.2381 101.017 40.0221 101.184 39.7726L101.554 40.0405ZM99.6888 38.1853C99.6888 37.9885 99.6789 37.7892 99.6605 37.5842C99.6473 37.4127 99.6126 37.2436 99.5573 37.0808C99.5141 36.947 99.4358 36.8272 99.3305 36.7341C99.2265 36.6542 99.0981 36.613 98.9671 36.6173C98.8412 36.6186 98.7182 36.655 98.6119 36.7225C98.5056 36.7899 98.4203 36.8857 98.3656 36.9991C98.1887 37.3753 98.1052 37.7887 98.1221 38.2041L99.6888 38.1853Z" fill="white"/>
<path fill-rule="evenodd" clip-rule="evenodd" d="M106.887 37.2571C106.891 37.4948 106.809 37.726 106.657 37.9091C106.585 37.9995 106.493 38.0719 106.388 38.1205C106.283 38.1691 106.168 38.1926 106.052 38.1892C105.837 38.1958 105.625 38.1327 105.449 38.0092C105.367 37.948 105.301 37.8673 105.258 37.7745C105.215 37.6816 105.196 37.5796 105.202 37.4774C105.2 37.3879 105.208 37.2984 105.227 37.2109C105.244 37.1471 105.257 37.0873 105.271 37.0324C105.102 37.0449 104.94 37.0987 104.797 37.1891C104.627 37.2898 104.478 37.4221 104.357 37.5791V40.2605C104.354 40.358 104.373 40.455 104.412 40.5442C104.45 40.6214 104.514 40.6832 104.592 40.7191C104.703 40.7661 104.821 40.7965 104.941 40.8092C105.102 40.8342 105.219 40.8475 105.291 40.8509V41.2073H102.024V40.8506C102.106 40.8438 102.187 40.8359 102.271 40.8242C102.342 40.8153 102.413 40.7997 102.482 40.7775C102.573 40.7531 102.65 40.6938 102.697 40.6125C102.74 40.5209 102.76 40.4202 102.756 40.3191V37.477C102.758 37.3666 102.73 37.2578 102.674 37.1625C102.623 37.0751 102.554 36.999 102.472 36.9391C102.404 36.8954 102.329 36.8628 102.25 36.8424C102.154 36.8143 102.055 36.7964 101.955 36.7892V36.432L104.284 36.3056L104.357 36.3792V37.0857H104.377C104.581 36.8441 104.822 36.6375 105.092 36.4742C105.33 36.3295 105.602 36.2522 105.881 36.2508C106.015 36.2438 106.149 36.265 106.274 36.3131C106.399 36.3612 106.513 36.4351 106.608 36.5299C106.703 36.6248 106.777 36.7385 106.825 36.8638C106.873 36.9891 106.894 37.1231 106.887 37.2571Z" fill="white"/>
<path fill-rule="evenodd" clip-rule="evenodd" d="M111.842 34.4742C111.842 34.565 111.829 34.6553 111.804 34.7427C111.781 34.8339 111.738 34.9188 111.677 34.991C111.614 35.0679 111.536 35.1314 111.448 35.1775C111.327 35.2259 111.197 35.2476 111.067 35.241C110.952 35.2463 110.838 35.2248 110.732 35.1782C110.627 35.1316 110.534 35.0612 110.461 34.9725C110.263 34.6983 110.106 34.3976 109.992 34.0793C109.913 34.1251 109.844 34.1867 109.789 34.2605C109.735 34.3342 109.696 34.4183 109.676 34.5077C109.568 34.9965 109.526 35.4976 109.552 35.9976V36.3822H110.901V36.9103H109.562V40.2743C109.556 40.3805 109.587 40.4855 109.651 40.571C109.712 40.6422 109.791 40.6953 109.881 40.7244C109.981 40.7563 110.084 40.7813 110.188 40.7992C110.314 40.8241 110.429 40.8409 110.529 40.8511V41.2074H107.234V40.8508C107.319 40.844 107.401 40.8361 107.481 40.8262C107.553 40.8191 107.624 40.8028 107.692 40.7777C107.782 40.7508 107.859 40.6906 107.906 40.6093C107.946 40.5181 107.965 40.4189 107.961 40.3193V36.9103H106.971V36.3822H107.961C107.96 36.0394 108.012 35.6986 108.112 35.3709C108.209 35.0507 108.368 34.7528 108.581 34.4944C108.8 34.2289 109.078 34.0183 109.392 33.8793C109.764 33.7148 110.168 33.6345 110.574 33.6442C110.902 33.6247 111.229 33.7048 111.511 33.8742C111.613 33.9372 111.697 34.0255 111.755 34.1306C111.813 34.2358 111.843 34.3541 111.842 34.4742Z" fill="white"/>
<path fill-rule="evenodd" clip-rule="evenodd" d="M116.139 36.9388C116.38 37.1637 116.569 37.4393 116.691 37.7458C116.82 38.0685 116.884 38.4133 116.881 38.7608C116.883 39.1106 116.82 39.4577 116.694 39.7841C116.574 40.0959 116.386 40.377 116.144 40.6073C115.879 40.8555 115.566 41.0467 115.224 41.1692C114.831 41.3049 114.417 41.3709 114.001 41.3642C113.628 41.3682 113.257 41.3102 112.904 41.1924C112.577 41.0821 112.276 40.9082 112.017 40.6807C111.767 40.4563 111.567 40.1806 111.432 39.8723C111.285 39.5327 111.212 39.1658 111.217 38.7957C111.211 38.4389 111.275 38.0844 111.406 37.7522C111.534 37.4443 111.726 37.1671 111.969 36.939C112.226 36.7026 112.53 36.5226 112.861 36.4107C113.636 36.1597 114.472 36.1597 115.247 36.4107C115.577 36.5254 115.88 36.705 116.139 36.9388ZM114.889 40.3239C114.969 40.1096 115.022 39.8864 115.047 39.6591C115.085 39.3578 115.102 39.0543 115.099 38.7507C115.097 38.4901 115.081 38.2298 115.051 37.9709C115.03 37.7347 114.981 37.5018 114.904 37.2775C114.839 37.0913 114.727 36.9249 114.579 36.7941C114.423 36.6771 114.233 36.6149 114.037 36.6174C113.842 36.6198 113.654 36.6867 113.501 36.8076C113.356 36.9442 113.247 37.1133 113.181 37.3007C113.107 37.5113 113.059 37.7302 113.039 37.9525C113.012 38.2116 112.998 38.472 112.999 38.7325C112.999 39.0872 113.011 39.3804 113.034 39.6124C113.059 39.8523 113.114 40.088 113.199 40.3139C113.263 40.4991 113.374 40.6643 113.522 40.7925C113.673 40.9127 113.862 40.9748 114.054 40.9674C114.236 40.9722 114.413 40.9145 114.557 40.8041C114.71 40.6776 114.825 40.5114 114.889 40.3239Z" fill="white"/>
<path fill-rule="evenodd" clip-rule="evenodd" d="M122.374 37.2571C122.377 37.4948 122.296 37.726 122.144 37.9091C122.072 37.9995 121.98 38.0719 121.875 38.1205C121.77 38.1691 121.655 38.1926 121.539 38.1892C121.324 38.1958 121.112 38.1327 120.936 38.0092C120.854 37.948 120.788 37.8673 120.745 37.7745C120.702 37.6816 120.683 37.5796 120.689 37.4774C120.686 37.3879 120.695 37.2984 120.714 37.2109C120.731 37.1471 120.744 37.0873 120.757 37.0324C120.589 37.0449 120.426 37.0987 120.284 37.1891C120.114 37.2898 119.964 37.4221 119.844 37.5791L119.844 40.2605C119.841 40.358 119.86 40.4549 119.899 40.5442C119.937 40.6214 120.001 40.6832 120.079 40.7191C120.19 40.7661 120.307 40.7965 120.427 40.8092C120.589 40.8342 120.706 40.8475 120.777 40.8509V41.2073H117.511V40.8506C117.592 40.8438 117.674 40.8359 117.757 40.8242C117.829 40.8153 117.9 40.7997 117.969 40.7775C118.06 40.7531 118.137 40.6938 118.184 40.6125C118.227 40.5209 118.247 40.4202 118.242 40.3191V37.477C118.245 37.3666 118.216 37.2578 118.161 37.1625C118.109 37.0751 118.041 36.999 117.959 36.9391C117.891 36.8954 117.816 36.8628 117.737 36.8424C117.641 36.8142 117.542 36.7964 117.442 36.7892V36.432L119.771 36.3056L119.844 36.3792V37.0857H119.864C120.067 36.8441 120.309 36.6375 120.579 36.4742C120.817 36.3295 121.089 36.2522 121.367 36.2508C121.501 36.2438 121.635 36.265 121.761 36.3131C121.886 36.3612 122 36.4351 122.095 36.5299C122.189 36.6248 122.263 36.7385 122.311 36.8638C122.36 36.9891 122.381 37.1231 122.374 37.2571Z" fill="white"/>
<path fill-rule="evenodd" clip-rule="evenodd" d="M132.413 41.2072H129.502V40.8505C129.574 40.8403 129.649 40.8324 129.728 40.8259C129.795 40.8231 129.861 40.8066 129.923 40.7774C129.957 40.7629 129.987 40.7405 130.01 40.7122C130.034 40.6838 130.051 40.6502 130.059 40.6141C130.081 40.5174 130.091 40.4183 130.089 40.319V38.039C130.107 37.7751 130.045 37.5119 129.911 37.284C129.854 37.2023 129.778 37.1364 129.688 37.0924C129.599 37.0484 129.5 37.0277 129.401 37.0323C129.273 37.0299 129.145 37.0526 129.026 37.0992C128.92 37.1413 128.819 37.1961 128.726 37.2624C128.643 37.3202 128.569 37.3892 128.506 37.4674C128.454 37.5357 128.411 37.5941 128.374 37.6422V40.2654C128.372 40.3621 128.386 40.4586 128.416 40.5506C128.445 40.6251 128.5 40.6867 128.571 40.7241C128.627 40.7555 128.686 40.7817 128.748 40.8024C128.817 40.8254 128.888 40.8416 128.961 40.8508V41.2072H126.173V40.8505C126.234 40.8437 126.309 40.8358 126.397 40.8259C126.465 40.8226 126.531 40.8061 126.592 40.7774C126.624 40.7619 126.653 40.74 126.676 40.713C126.699 40.6861 126.717 40.6546 126.728 40.6207C126.751 40.522 126.762 40.4205 126.759 40.319V38.039C126.777 37.7751 126.715 37.5119 126.581 37.284C126.524 37.2023 126.447 37.1363 126.358 37.0923C126.269 37.0483 126.17 37.0276 126.071 37.0323C125.943 37.0299 125.815 37.0526 125.696 37.0992C125.59 37.1413 125.489 37.1961 125.396 37.2624C125.313 37.3202 125.239 37.3892 125.176 37.4674C125.124 37.5357 125.081 37.5941 125.044 37.6422V40.2654C125.041 40.3614 125.056 40.4572 125.089 40.5475C125.118 40.6229 125.173 40.6854 125.244 40.7241C125.301 40.7552 125.361 40.7814 125.422 40.8024C125.492 40.8256 125.563 40.8418 125.636 40.8508V41.2072H122.711V40.8505C122.796 40.8437 122.879 40.8358 122.959 40.8259C123.031 40.8194 123.102 40.8031 123.169 40.7774C123.26 40.7506 123.336 40.6904 123.384 40.609C123.427 40.5186 123.447 40.419 123.443 40.319V37.4769C123.442 37.37 123.414 37.265 123.361 37.1722C123.312 37.0807 123.243 37.0011 123.159 36.939C123.091 36.8953 123.016 36.8627 122.937 36.8423C122.841 36.8142 122.742 36.7963 122.642 36.789V36.4319L124.971 36.3055L125.044 36.3791V37.0671H125.064C125.156 36.9855 125.264 36.889 125.389 36.7757C125.499 36.6757 125.617 36.5853 125.743 36.5055C125.887 36.4173 126.044 36.3516 126.208 36.3108C126.41 36.256 126.618 36.2295 126.827 36.2323C127.154 36.2204 127.478 36.3045 127.757 36.4741C127.998 36.6257 128.184 36.8505 128.288 37.1156L128.331 37.1153C128.426 37.0271 128.541 36.924 128.678 36.8058C128.795 36.7004 128.921 36.6045 129.054 36.5189C129.206 36.4282 129.369 36.3592 129.539 36.314C129.745 36.258 129.958 36.2305 130.171 36.2323C130.38 36.2193 130.59 36.2513 130.786 36.3261C130.982 36.4008 131.16 36.5166 131.308 36.6657C131.592 37.0127 131.734 37.4549 131.704 37.9025V40.274C131.7 40.3741 131.719 40.4739 131.759 40.5657C131.801 40.6443 131.87 40.7044 131.954 40.734C132.006 40.7553 132.071 40.7791 132.147 40.8024C132.234 40.827 132.323 40.8432 132.412 40.8508L132.413 41.2072Z" fill="white"/>
<path fill-rule="evenodd" clip-rule="evenodd" d="M138.449 41.1038C138.284 41.1743 138.114 41.2318 137.941 41.2759C137.738 41.3284 137.53 41.3546 137.321 41.354C137.016 41.3749 136.711 41.3134 136.437 41.1758C136.25 41.0599 136.112 40.878 136.051 40.6658L136.022 40.6656C135.922 40.7665 135.815 40.8612 135.702 40.9493C135.6 41.027 135.489 41.094 135.372 41.1492C135.231 41.2168 135.083 41.2699 134.931 41.3077C134.736 41.3472 134.536 41.3645 134.337 41.3592C133.985 41.3682 133.642 41.2491 133.371 41.0242C133.24 40.9171 133.136 40.7814 133.066 40.6277C132.997 40.4739 132.963 40.3062 132.969 40.1375C132.964 39.9541 132.994 39.7715 133.057 39.5992C133.114 39.453 133.199 39.3194 133.307 39.206C133.405 39.1012 133.519 39.0137 133.646 38.9474C133.782 38.8747 133.924 38.8107 134.069 38.7559C134.361 38.649 134.712 38.5379 135.122 38.4225C135.43 38.3422 135.731 38.2385 136.022 38.1123V37.6421C136.022 37.5605 136.016 37.4542 136.002 37.321C135.993 37.2049 135.965 37.0911 135.919 36.9842C135.873 36.8783 135.799 36.7872 135.704 36.7209C135.591 36.6442 135.456 36.6063 135.319 36.6126C135.196 36.6083 135.074 36.6293 134.959 36.6741C134.878 36.7067 134.8 36.7481 134.727 36.7974C134.747 36.8989 134.775 36.9987 134.811 37.0959C134.855 37.2201 134.878 37.3508 134.879 37.4826C134.875 37.5533 134.861 37.623 134.836 37.6891C134.811 37.7654 134.767 37.8338 134.707 37.8876C134.633 37.9515 134.548 38.0027 134.457 38.0392C134.319 38.0807 134.174 38.0987 134.029 38.0926C133.805 38.1085 133.582 38.0375 133.409 37.8941C133.342 37.8285 133.288 37.75 133.252 37.6634C133.216 37.5767 133.198 37.4837 133.199 37.3898C133.2 37.296 133.219 37.2032 133.257 37.1172C133.295 37.0312 133.349 36.9536 133.417 36.8892C133.57 36.7378 133.749 36.6158 133.946 36.5292C134.172 36.425 134.41 36.3489 134.654 36.3025C134.899 36.2513 135.148 36.2245 135.397 36.2225C135.688 36.2208 135.978 36.2392 136.266 36.2775C136.516 36.3109 136.758 36.3899 136.979 36.5108C137.183 36.6265 137.35 36.7982 137.459 37.0057C137.589 37.2684 137.65 37.5597 137.637 37.8524C137.637 38.2209 137.63 38.6571 137.616 39.1609C137.601 39.6654 137.593 39.9976 137.594 40.1576C137.589 40.2766 137.611 40.3953 137.659 40.5043C137.703 40.5889 137.775 40.6559 137.862 40.6941C137.946 40.726 138.035 40.7419 138.124 40.741C138.242 40.7455 138.351 40.7491 138.449 40.7491L138.449 41.1038ZM136.022 38.5606C135.839 38.6226 135.659 38.694 135.479 38.7743C135.323 38.8398 135.176 38.9237 135.041 39.0243C134.919 39.1162 134.822 39.2362 134.757 39.3741C134.686 39.5308 134.65 39.7018 134.654 39.8741C134.645 39.9729 134.656 40.0726 134.685 40.1673C134.715 40.262 134.763 40.3498 134.827 40.4257C134.883 40.4819 134.95 40.5261 135.024 40.5556C135.097 40.5852 135.176 40.5995 135.256 40.5976C135.41 40.6037 135.564 40.5655 135.697 40.4876C135.813 40.414 135.916 40.3223 136.002 40.216L136.022 38.5606Z" fill="white"/>
<path fill-rule="evenodd" clip-rule="evenodd" d="M145.269 41.2072H142.329V40.8506C142.393 40.8438 142.466 40.8359 142.554 40.826C142.623 40.8221 142.691 40.8057 142.754 40.7775C142.82 40.7448 142.873 40.689 142.901 40.6208C142.936 40.5242 142.951 40.4216 142.946 40.3191V38.0341C142.964 37.7712 142.9 37.5091 142.762 37.2841C142.701 37.2005 142.619 37.1336 142.524 37.0897C142.43 37.0457 142.326 37.026 142.222 37.0324C142.099 37.0316 141.976 37.0513 141.859 37.0908C141.742 37.1326 141.631 37.1905 141.529 37.2626C141.445 37.3183 141.368 37.3855 141.303 37.4624C141.246 37.5306 141.197 37.5908 141.157 37.6423V40.2655C141.155 40.3629 141.172 40.46 141.207 40.5507C141.238 40.6262 141.295 40.6879 141.368 40.7242C141.43 40.757 141.495 40.7832 141.563 40.8025C141.638 40.8245 141.715 40.8407 141.792 40.8509V41.2072H138.824V40.8506C138.906 40.8438 138.987 40.8359 139.071 40.8242C139.143 40.8153 139.213 40.7996 139.282 40.7775C139.373 40.7531 139.45 40.6938 139.497 40.6125C139.54 40.5208 139.56 40.4202 139.556 40.3191V37.477C139.555 37.3729 139.529 37.2705 139.479 37.1791C139.429 37.0848 139.358 37.0028 139.272 36.939C139.204 36.8954 139.129 36.8628 139.051 36.8424C138.954 36.8142 138.856 36.7964 138.756 36.7891V36.432L141.084 36.3056L141.157 36.3792V37.0856H141.178C141.269 37.0051 141.379 36.9073 141.509 36.7941C141.623 36.6927 141.744 36.5997 141.871 36.5158C142.018 36.4258 142.177 36.3578 142.344 36.314C142.548 36.258 142.758 36.2306 142.969 36.2324C143.189 36.2156 143.41 36.2474 143.617 36.3255C143.823 36.4035 144.01 36.526 144.164 36.6842C144.441 37.02 144.583 37.4475 144.561 37.8824V40.2741C144.556 40.3732 144.575 40.472 144.616 40.5626C144.66 40.6418 144.731 40.7026 144.816 40.7341C144.867 40.7553 144.931 40.7792 145.007 40.8024C145.093 40.8266 145.181 40.8429 145.269 40.8509L145.269 41.2072Z" fill="white"/>
<path fill-rule="evenodd" clip-rule="evenodd" d="M148.512 41.3639C148.104 41.3714 147.698 41.3042 147.314 41.1657C146.992 41.0501 146.7 40.8658 146.456 40.6257C146.23 40.3927 146.059 40.1127 145.954 39.8057C145.84 39.4744 145.784 39.1261 145.788 38.7758C145.787 38.4428 145.856 38.1134 145.991 37.809C146.122 37.5088 146.308 37.2357 146.539 37.0039C146.793 36.7554 147.095 36.5615 147.426 36.4342C147.799 36.2889 148.196 36.217 148.596 36.2224C149.092 36.1969 149.585 36.3142 150.016 36.5606C150.177 36.6532 150.31 36.7869 150.402 36.948C150.494 37.1092 150.541 37.2918 150.539 37.4773C150.548 37.6827 150.482 37.8843 150.352 38.044C150.267 38.1231 150.166 38.1831 150.056 38.2199C149.945 38.2567 149.828 38.2695 149.713 38.2573C149.495 38.2651 149.281 38.204 149.101 38.0825C149.024 38.0332 148.962 37.9653 148.919 37.8852C148.875 37.805 148.853 37.7152 148.854 37.6242C148.854 37.4626 148.88 37.302 148.933 37.1491C148.975 37.034 149.005 36.9151 149.024 36.7941C148.992 36.7373 148.945 36.6905 148.887 36.6589C148.807 36.6224 148.718 36.6064 148.629 36.6124C148.489 36.6106 148.351 36.6462 148.229 36.7156C148.088 36.805 147.972 36.9289 147.892 37.0756C147.776 37.2789 147.694 37.5004 147.651 37.7307C147.585 38.0554 147.555 38.3862 147.559 38.7174C147.535 39.2171 147.679 39.7105 147.968 40.1191C148.075 40.2797 148.22 40.4119 148.39 40.5045C148.56 40.597 148.749 40.6472 148.942 40.6506C149.248 40.6666 149.551 40.5818 149.804 40.4092C150.039 40.2216 150.232 39.9878 150.373 39.7223L150.739 39.9774C150.64 40.172 150.519 40.3544 150.378 40.5209C150.232 40.6901 150.062 40.8377 149.874 40.9591C149.68 41.0869 149.47 41.1883 149.249 41.2606C149.01 41.333 148.762 41.3679 148.512 41.3639Z" fill="white"/>
<path fill-rule="evenodd" clip-rule="evenodd" d="M156.286 40.0405C156.168 40.2302 156.03 40.4063 155.874 40.5657C155.711 40.7307 155.526 40.8726 155.324 40.9875C155.115 41.1071 154.893 41.2016 154.662 41.2692C154.412 41.3357 154.153 41.3677 153.894 41.3642C153.469 41.3737 153.045 41.3042 152.646 41.159C152.321 41.0379 152.026 40.85 151.779 40.6074C151.551 40.3752 151.377 40.0958 151.269 39.789C151.155 39.4601 151.098 39.1139 151.101 38.7657C151.1 38.1085 151.352 37.476 151.804 36.9991C152.042 36.7567 152.326 36.5655 152.641 36.4373C152.999 36.2897 153.384 36.2166 153.772 36.2225C154.153 36.2107 154.533 36.2666 154.894 36.3875C155.167 36.4863 155.416 36.6432 155.623 36.8475C155.807 37.0315 155.946 37.2565 156.027 37.504C156.113 37.7598 156.155 38.0278 156.154 38.2974V38.6141H152.854C152.818 39.1498 152.953 39.6831 153.239 40.1374C153.494 40.417 153.84 40.5975 154.215 40.6472C154.591 40.6969 154.971 40.6127 155.291 40.4093C155.537 40.2381 155.749 40.0221 155.916 39.7726L156.286 40.0405ZM154.421 38.1853C154.421 37.9885 154.411 37.7892 154.392 37.5842C154.379 37.4127 154.344 37.2436 154.289 37.0808C154.246 36.947 154.168 36.8273 154.062 36.7341C153.958 36.6542 153.83 36.613 153.699 36.6173C153.573 36.6186 153.45 36.655 153.344 36.7225C153.238 36.7899 153.152 36.8857 153.097 36.9991C152.921 37.3753 152.837 37.7887 152.854 38.2041L154.421 38.1853Z" fill="white"/>
<path fill-rule="evenodd" clip-rule="evenodd" d="M167.302 41.2073H164.646C164.186 40.504 163.804 39.944 163.501 39.5274C163.196 39.1107 162.818 38.6292 162.366 38.0827H162.097V40.1873C162.094 40.2901 162.117 40.3921 162.162 40.4842C162.221 40.5784 162.31 40.6505 162.414 40.6891C162.508 40.7249 162.605 40.7523 162.704 40.7711C162.816 40.7954 162.93 40.8137 163.044 40.8261V41.2073H159.348V40.8258C159.443 40.8176 159.566 40.8026 159.721 40.7857C159.833 40.7769 159.944 40.7546 160.051 40.7192C160.154 40.684 160.242 40.6139 160.299 40.5211C160.346 40.4264 160.368 40.3216 160.364 40.2161V35.329C160.368 35.2285 160.349 35.1284 160.309 35.036C160.251 34.9382 160.159 34.8651 160.051 34.8308C159.932 34.7834 159.808 34.7471 159.683 34.7225C159.541 34.6942 159.429 34.6726 159.348 34.6593V34.2789H163.234C163.919 34.2373 164.602 34.3777 165.214 34.6859C165.43 34.8088 165.607 34.9892 165.727 35.2069C165.846 35.4246 165.903 35.6712 165.891 35.9192C165.911 36.349 165.76 36.7693 165.472 37.0891C165.117 37.4275 164.678 37.6657 164.201 37.7793C164.423 38.0656 164.681 38.3978 164.976 38.7759C165.269 39.1541 165.576 39.5396 165.896 39.9325C165.996 40.0609 166.134 40.216 166.308 40.3991C166.433 40.5471 166.591 40.6636 166.769 40.7393C166.863 40.7651 166.959 40.7845 167.056 40.7976C167.171 40.8141 167.253 40.8243 167.303 40.826L167.302 41.2073ZM163.977 36.0558C163.994 35.8685 163.967 35.68 163.9 35.5044C163.833 35.3289 163.726 35.1709 163.589 35.0425C163.269 34.8102 162.877 34.697 162.482 34.7224L162.097 34.7222V37.624H162.468C162.874 37.649 163.273 37.5139 163.581 37.2476C163.725 37.0866 163.834 36.8978 163.903 36.6928C163.971 36.4878 163.996 36.271 163.977 36.0558Z" fill="white"/>
<path fill-rule="evenodd" clip-rule="evenodd" d="M173.547 36.1289H173.171C173.051 35.8167 172.883 35.5258 172.671 35.2674C172.515 35.0205 172.272 34.8418 171.989 34.7675C171.891 34.7535 171.761 34.7425 171.599 34.7323C171.436 34.7221 171.286 34.7176 171.149 34.7176L170.071 34.717V37.4371H170.759C170.93 37.4404 171.101 37.4186 171.266 37.3725C171.411 37.3265 171.542 37.2452 171.647 37.1358C171.752 37.0159 171.832 36.8773 171.884 36.7273C171.952 36.571 171.998 36.4062 172.023 36.2375H172.394V39.1523H172.023C172 38.9675 171.949 38.7872 171.872 38.6175C171.818 38.4678 171.742 38.3269 171.647 38.1991C171.549 38.0922 171.424 38.0125 171.286 37.9675C171.115 37.9139 170.938 37.8885 170.759 37.8924H170.071V40.1873C170.068 40.2911 170.09 40.3941 170.136 40.4875C170.194 40.5819 170.283 40.6532 170.387 40.6891C170.483 40.7254 170.582 40.7528 170.683 40.771C170.808 40.7936 170.933 40.8141 171.056 40.826V41.2073H167.321V40.8257C167.416 40.8175 167.541 40.8025 167.697 40.7857C167.809 40.7773 167.918 40.7549 168.024 40.7191C168.125 40.6863 168.212 40.6191 168.269 40.5292C168.318 40.4322 168.341 40.3245 168.337 40.216V35.329C168.339 35.2284 168.318 35.1286 168.276 35.0373C168.219 34.9413 168.13 34.8682 168.024 34.8307C167.907 34.7833 167.786 34.747 167.663 34.7224C167.513 34.6907 167.399 34.6691 167.321 34.6592V34.2788H173.547L173.547 36.1289Z" fill="white"/>
<path fill-rule="evenodd" clip-rule="evenodd" d="M180.206 41.3923C179.719 41.3965 179.236 41.3129 178.779 41.1457C178.349 40.9895 177.955 40.7461 177.623 40.4308C177.291 40.1111 177.031 39.7241 176.861 39.2957C176.489 38.3377 176.49 37.2751 176.863 36.3175C177.042 35.8718 177.311 35.4674 177.653 35.1292C177.993 34.7935 178.4 34.5328 178.847 34.3641C179.325 34.1816 179.831 34.0895 180.342 34.0926C180.697 34.0883 181.051 34.1354 181.393 34.2326C181.669 34.3103 181.937 34.4159 182.193 34.5476L182.496 34.2788H182.921L182.964 36.8073H182.534C182.369 36.1837 182.07 35.604 181.656 35.1091C181.498 34.9351 181.305 34.7968 181.089 34.7034C180.874 34.61 180.641 34.5636 180.406 34.5674C180.121 34.5583 179.839 34.629 179.593 34.7716C179.346 34.9141 179.144 35.1228 179.009 35.3741C178.654 36.0752 178.489 36.8574 178.531 37.6423C178.522 38.1176 178.577 38.5919 178.694 39.0526C178.779 39.3883 178.924 39.7061 179.121 39.9909C179.295 40.2261 179.525 40.4135 179.791 40.5356C180.06 40.6542 180.352 40.7135 180.646 40.7092C181.08 40.7156 181.506 40.5862 181.863 40.3392C182.265 40.0393 182.597 39.6561 182.837 39.2158L183.258 39.469C183.126 39.7416 182.966 39.9993 182.779 40.2375C182.602 40.4615 182.393 40.6586 182.159 40.8225C181.897 41.0031 181.609 41.1446 181.306 41.2424C180.949 41.349 180.578 41.3995 180.206 41.3923Z" fill="white"/>
<path fill-rule="evenodd" clip-rule="evenodd" d="M188.658 36.9388C188.899 37.1637 189.088 37.4393 189.21 37.7458C189.338 38.0685 189.403 38.4133 189.399 38.7608C189.402 39.1106 189.339 39.4577 189.213 39.7841C189.093 40.0959 188.905 40.377 188.663 40.6073C188.398 40.8555 188.085 41.0467 187.743 41.1692C187.349 41.3049 186.935 41.3709 186.519 41.3642C186.147 41.3682 185.776 41.3102 185.423 41.1924C185.096 41.0821 184.795 40.9082 184.536 40.6807C184.285 40.4563 184.086 40.1806 183.951 39.8723C183.804 39.5327 183.731 39.1657 183.736 38.7957C183.73 38.4389 183.794 38.0844 183.924 37.7522C184.052 37.4443 184.245 37.1671 184.488 36.939C184.745 36.7026 185.049 36.5226 185.379 36.4107C186.155 36.1597 186.99 36.1597 187.766 36.4107C188.096 36.5254 188.399 36.705 188.658 36.9388ZM187.408 40.3239C187.488 40.1096 187.541 39.8864 187.566 39.6591C187.603 39.3578 187.621 39.0543 187.618 38.7507C187.616 38.4901 187.599 38.2298 187.569 37.9709C187.549 37.7347 187.5 37.5018 187.423 37.2775C187.357 37.0913 187.246 36.9249 187.098 36.7941C186.942 36.6771 186.751 36.6149 186.556 36.6174C186.361 36.6198 186.172 36.6867 186.019 36.8076C185.875 36.9443 185.765 37.1133 185.699 37.3007C185.625 37.5112 185.578 37.7302 185.558 37.9525C185.53 38.2116 185.517 38.472 185.518 38.7325C185.518 39.0872 185.529 39.3804 185.553 39.6124C185.578 39.8523 185.633 40.088 185.718 40.3139C185.782 40.4991 185.893 40.6642 186.041 40.7925C186.192 40.9127 186.38 40.9748 186.573 40.9674C186.754 40.9722 186.932 40.9146 187.076 40.8041C187.229 40.6775 187.343 40.5114 187.408 40.3239Z" fill="white"/>
<path fill-rule="evenodd" clip-rule="evenodd" d="M199.731 41.2072H196.821V40.8505C196.893 40.8403 196.968 40.8324 197.046 40.8259C197.114 40.8231 197.18 40.8066 197.241 40.7774C197.275 40.7629 197.305 40.7406 197.329 40.7122C197.353 40.6838 197.369 40.6502 197.378 40.6141C197.4 40.5174 197.41 40.4183 197.408 40.319V38.039C197.426 37.7751 197.364 37.5119 197.229 37.284C197.173 37.2023 197.096 37.1364 197.007 37.0924C196.918 37.0484 196.819 37.0277 196.72 37.0323C196.591 37.0299 196.464 37.0526 196.345 37.0992C196.238 37.1414 196.138 37.1962 196.044 37.2624C195.962 37.3202 195.888 37.3892 195.824 37.4674C195.773 37.5357 195.729 37.5941 195.693 37.6422V40.2654C195.69 40.3621 195.704 40.4586 195.734 40.5506C195.764 40.6251 195.819 40.6867 195.889 40.7241C195.946 40.7555 196.005 40.7817 196.066 40.8024C196.135 40.8254 196.207 40.8416 196.279 40.8508V41.2072H193.491V40.8505C193.553 40.8437 193.628 40.8358 193.716 40.8259C193.784 40.8226 193.85 40.8061 193.911 40.7774C193.943 40.7619 193.972 40.74 193.995 40.713C194.018 40.6861 194.036 40.6546 194.046 40.6207C194.07 40.522 194.081 40.4205 194.078 40.319V38.039C194.096 37.7751 194.034 37.5118 193.899 37.284C193.843 37.2023 193.766 37.1364 193.677 37.0923C193.588 37.0483 193.489 37.0276 193.389 37.0323C193.261 37.0299 193.134 37.0526 193.014 37.0992C192.908 37.1413 192.808 37.1961 192.715 37.2624C192.632 37.3202 192.558 37.3892 192.495 37.4674C192.443 37.5357 192.399 37.5941 192.363 37.6422V40.2654C192.36 40.3614 192.375 40.4572 192.408 40.5475C192.437 40.6229 192.492 40.6854 192.563 40.7241C192.62 40.7552 192.68 40.7814 192.741 40.8024C192.81 40.8256 192.882 40.8418 192.954 40.8508V41.2072H190.03V40.8505C190.114 40.8437 190.198 40.8358 190.278 40.8259C190.35 40.8194 190.42 40.8031 190.488 40.7774C190.578 40.7506 190.655 40.6904 190.703 40.609C190.746 40.5186 190.766 40.419 190.761 40.319V37.4769C190.761 37.37 190.733 37.265 190.68 37.1722C190.63 37.0807 190.561 37.0011 190.478 36.939C190.409 36.8953 190.335 36.8627 190.256 36.8423C190.16 36.8142 190.061 36.7963 189.961 36.789V36.4319L192.289 36.3055L192.363 36.3791V37.0671H192.383C192.474 36.9855 192.583 36.889 192.708 36.7757C192.818 36.6757 192.936 36.5853 193.061 36.5055C193.205 36.4173 193.362 36.3516 193.526 36.3108C193.728 36.256 193.937 36.2295 194.146 36.2323C194.473 36.2204 194.796 36.3045 195.076 36.4741C195.317 36.6256 195.503 36.8505 195.606 37.1156L195.65 37.1153C195.744 37.0271 195.86 36.924 195.996 36.8058C196.114 36.7005 196.24 36.6045 196.373 36.5189C196.524 36.4282 196.687 36.3592 196.858 36.314C197.064 36.258 197.276 36.2305 197.489 36.2323C197.699 36.2193 197.909 36.2513 198.105 36.3261C198.301 36.4008 198.479 36.5166 198.626 36.6657C198.911 37.0127 199.052 37.4549 199.023 37.9025V40.274C199.019 40.3741 199.037 40.4739 199.078 40.5657C199.119 40.6443 199.189 40.7044 199.273 40.734C199.324 40.7553 199.39 40.7791 199.466 40.8024C199.553 40.827 199.641 40.8432 199.731 40.8508L199.731 41.2072Z" fill="white"/>
<path fill-rule="evenodd" clip-rule="evenodd" d="M206.133 38.8291C206.145 39.4862 205.898 40.1217 205.445 40.5976C205.224 40.838 204.954 41.0282 204.653 41.1553C204.352 41.2824 204.028 41.3435 203.701 41.3343C203.444 41.3413 203.187 41.3092 202.94 41.2393C202.767 41.1875 202.604 41.1092 202.456 41.0074L202.418 41.0069V42.3789C202.415 42.4834 202.441 42.5866 202.493 42.6776C202.542 42.7613 202.617 42.8264 202.706 42.8627C202.827 42.908 202.952 42.9409 203.08 42.9608C203.213 42.9856 203.347 43.0034 203.481 43.0144V43.3756H199.956V43.0141C200.038 43.0073 200.141 42.996 200.265 42.9775C200.359 42.9658 200.452 42.9469 200.543 42.9208C200.589 42.9075 200.632 42.8843 200.669 42.8526C200.706 42.821 200.735 42.7818 200.755 42.7377C200.794 42.6444 200.813 42.5438 200.811 42.4425V37.4469C200.803 37.3489 200.778 37.2532 200.736 37.1643C200.691 37.0776 200.624 37.0037 200.543 36.9491C200.463 36.901 200.375 36.8656 200.284 36.8442C200.18 36.8172 200.074 36.7988 199.966 36.7893V36.4321L202.345 36.3057L202.418 36.3686V36.9102L202.456 36.9205C202.662 36.709 202.904 36.5368 203.171 36.4125C203.415 36.2965 203.681 36.2351 203.951 36.2325C204.255 36.2196 204.557 36.2775 204.834 36.4016C205.111 36.5258 205.355 36.7127 205.548 36.9477C205.958 37.4863 206.166 38.1526 206.133 38.8291ZM204.381 38.8486C204.382 38.6144 204.364 38.3805 204.326 38.1493C204.296 37.9407 204.232 37.7386 204.136 37.5509C204.056 37.3844 203.937 37.2401 203.788 37.1308C203.633 37.023 203.447 36.9681 203.258 36.9743C203.082 36.9659 202.906 37.0038 202.749 37.0843C202.622 37.1578 202.51 37.2544 202.418 37.3693V40.1372C202.447 40.2246 202.484 40.309 202.529 40.3893C202.575 40.4778 202.631 40.5606 202.696 40.6359C202.773 40.7211 202.868 40.7878 202.975 40.8309C203.083 40.8743 203.199 40.8959 203.316 40.8944C203.481 40.8898 203.642 40.8385 203.778 40.7464C203.915 40.6544 204.023 40.5253 204.09 40.3743C204.311 39.8974 204.411 39.3734 204.381 38.8486Z" fill="white"/>
<path fill-rule="evenodd" clip-rule="evenodd" d="M211.748 36.9388C211.989 37.1637 212.178 37.4393 212.3 37.7458C212.428 38.0685 212.493 38.4133 212.49 38.7608C212.492 39.1106 212.429 39.4577 212.303 39.7841C212.183 40.0958 211.995 40.377 211.753 40.6073C211.488 40.8555 211.175 41.0467 210.833 41.1692C210.44 41.3049 210.026 41.3709 209.61 41.3642C209.237 41.3682 208.866 41.3102 208.513 41.1924C208.186 41.0822 207.885 40.9082 207.626 40.6807C207.375 40.4563 207.176 40.1806 207.041 39.8723C206.894 39.5327 206.821 39.1658 206.826 38.7957C206.82 38.4389 206.884 38.0844 207.014 37.7522C207.143 37.4443 207.335 37.1671 207.578 36.939C207.835 36.7026 208.139 36.5226 208.469 36.4107C209.245 36.1597 210.08 36.1597 210.856 36.4107C211.186 36.5255 211.489 36.705 211.748 36.9388ZM210.498 40.3239C210.578 40.1096 210.631 39.8864 210.656 39.6591C210.693 39.3578 210.711 39.0543 210.708 38.7507C210.706 38.4901 210.69 38.2298 210.66 37.9709C210.639 37.7347 210.59 37.5018 210.513 37.2775C210.448 37.0913 210.336 36.9249 210.188 36.7941C210.032 36.6771 209.841 36.6149 209.646 36.6174C209.451 36.6198 209.263 36.6867 209.11 36.8076C208.965 36.9443 208.856 37.1133 208.79 37.3007C208.715 37.5112 208.668 37.7302 208.648 37.9525C208.621 38.2116 208.607 38.472 208.608 38.7325C208.608 39.0872 208.62 39.3804 208.643 39.6124C208.668 39.8523 208.723 40.088 208.808 40.3139C208.872 40.4991 208.983 40.6642 209.131 40.7925C209.28 40.904 209.461 40.9653 209.647 40.9673C209.833 40.9694 210.015 40.9122 210.166 40.8041C210.319 40.6775 210.434 40.5114 210.498 40.3239Z" fill="white"/>
<path fill-rule="evenodd" clip-rule="evenodd" d="M219.565 41.2072H216.624V40.8506C216.688 40.8438 216.761 40.8359 216.85 40.826C216.919 40.8221 216.986 40.8057 217.05 40.7775C217.116 40.7447 217.168 40.689 217.196 40.6208C217.231 40.5242 217.246 40.4217 217.241 40.3191V38.0341C217.259 37.7711 217.195 37.5091 217.058 37.2841C216.996 37.2005 216.914 37.1336 216.82 37.0896C216.726 37.0457 216.622 37.026 216.518 37.0324C216.394 37.0316 216.272 37.0513 216.154 37.0908C216.037 37.1326 215.926 37.1904 215.824 37.2626C215.74 37.3183 215.664 37.3855 215.598 37.4624C215.541 37.5306 215.493 37.5908 215.453 37.6423V40.2655C215.45 40.3629 215.467 40.46 215.503 40.5507C215.533 40.6262 215.59 40.6879 215.663 40.7242C215.725 40.757 215.79 40.7832 215.858 40.8025C215.933 40.8245 216.01 40.8407 216.088 40.8509V41.2072H213.12V40.8506C213.201 40.8438 213.283 40.8359 213.366 40.8242C213.438 40.8153 213.509 40.7997 213.578 40.7775C213.668 40.7531 213.746 40.6938 213.793 40.6125C213.836 40.5208 213.856 40.4202 213.851 40.3191V37.477C213.851 37.3729 213.824 37.2705 213.774 37.1791C213.724 37.0848 213.654 37.0027 213.568 36.939C213.499 36.8954 213.425 36.8628 213.346 36.8424C213.25 36.8142 213.151 36.7964 213.051 36.7891V36.432L215.379 36.3056L215.453 36.3792V37.0856H215.473C215.564 37.0051 215.674 36.9073 215.805 36.7941C215.918 36.6927 216.039 36.5997 216.166 36.5158C216.313 36.4258 216.473 36.3578 216.639 36.314C216.843 36.258 217.053 36.2306 217.264 36.2324C217.485 36.2156 217.706 36.2474 217.912 36.3255C218.119 36.4035 218.305 36.526 218.459 36.6842C218.737 37.02 218.878 37.4475 218.856 37.8824V40.2741C218.852 40.3732 218.871 40.472 218.911 40.5626C218.955 40.6418 219.026 40.7027 219.111 40.7341C219.163 40.7553 219.226 40.7792 219.303 40.8024C219.388 40.8266 219.476 40.8429 219.564 40.8509L219.565 41.2072Z" fill="white"/>
<path fill-rule="evenodd" clip-rule="evenodd" d="M225.268 40.0405C225.151 40.2302 225.012 40.4063 224.856 40.5657C224.693 40.7307 224.508 40.8726 224.306 40.9875C224.098 41.1071 223.876 41.2016 223.645 41.2692C223.394 41.3357 223.136 41.3677 222.876 41.3642C222.451 41.3737 222.028 41.3042 221.628 41.159C221.304 41.0379 221.008 40.85 220.761 40.6074C220.534 40.3752 220.359 40.0958 220.251 39.789C220.137 39.4601 220.08 39.1139 220.083 38.7657C220.082 38.1085 220.334 37.476 220.786 36.9991C221.024 36.7567 221.309 36.5655 221.623 36.4373C221.982 36.2897 222.367 36.2166 222.755 36.2225C223.135 36.2107 223.515 36.2666 223.876 36.3875C224.15 36.4863 224.398 36.6432 224.605 36.8475C224.789 37.0316 224.928 37.2565 225.01 37.504C225.095 37.7598 225.138 38.0278 225.136 38.2974V38.6141H221.836C221.801 39.1498 221.935 39.6831 222.221 40.1374C222.477 40.417 222.822 40.5975 223.198 40.6472C223.573 40.6969 223.954 40.6127 224.273 40.4093C224.519 40.2381 224.731 40.0221 224.898 39.7726L225.268 40.0405ZM223.403 38.1853C223.403 37.9885 223.393 37.7892 223.375 37.5842C223.361 37.4127 223.327 37.2436 223.271 37.0808C223.228 36.947 223.15 36.8272 223.045 36.7341C222.941 36.6542 222.812 36.613 222.681 36.6173C222.555 36.6186 222.432 36.655 222.326 36.7225C222.22 36.7899 222.134 36.8857 222.08 36.9991C221.903 37.3753 221.819 37.7887 221.836 38.2041L223.403 38.1853Z" fill="white"/>
<path fill-rule="evenodd" clip-rule="evenodd" d="M232.183 41.2072H229.243V40.8506C229.306 40.8438 229.38 40.8359 229.468 40.826C229.537 40.8221 229.605 40.8057 229.668 40.7775C229.734 40.7448 229.786 40.6891 229.815 40.6208C229.849 40.5242 229.865 40.4216 229.86 40.3191V38.0341C229.878 37.7712 229.814 37.5091 229.676 37.2841C229.614 37.2005 229.533 37.1336 229.438 37.0897C229.344 37.0457 229.24 37.026 229.136 37.0324C229.013 37.0316 228.89 37.0514 228.773 37.0908C228.656 37.1327 228.545 37.1905 228.443 37.2626C228.359 37.3183 228.282 37.3855 228.216 37.4624C228.16 37.5306 228.111 37.5908 228.071 37.6423V40.2655C228.068 40.3629 228.085 40.46 228.121 40.5507C228.152 40.6262 228.209 40.6879 228.281 40.7242C228.344 40.757 228.409 40.7832 228.476 40.8025C228.552 40.8245 228.629 40.8407 228.706 40.8509V41.2072H225.738V40.8506C225.82 40.8438 225.901 40.8359 225.985 40.8242C226.057 40.8153 226.127 40.7997 226.196 40.7775C226.287 40.7531 226.364 40.6938 226.411 40.6125C226.454 40.5208 226.474 40.4202 226.47 40.3191V37.477C226.469 37.3729 226.443 37.2705 226.393 37.1791C226.343 37.0848 226.272 37.0028 226.186 36.939C226.118 36.8954 226.043 36.8628 225.965 36.8424C225.868 36.8142 225.77 36.7964 225.67 36.7891V36.432L227.998 36.3056L228.071 36.3792V37.0856H228.092C228.183 37.0051 228.293 36.9073 228.423 36.7941C228.537 36.6927 228.658 36.5997 228.785 36.5158C228.932 36.4258 229.091 36.3578 229.258 36.314C229.462 36.258 229.672 36.2306 229.883 36.2324C230.103 36.2156 230.324 36.2474 230.531 36.3255C230.737 36.4035 230.924 36.526 231.078 36.6842C231.355 37.02 231.497 37.4475 231.475 37.8824V40.2741C231.47 40.3732 231.489 40.472 231.53 40.5626C231.574 40.6418 231.645 40.7026 231.73 40.7341C231.781 40.7553 231.845 40.7792 231.921 40.8024C232.007 40.8266 232.095 40.8429 232.183 40.8509L232.183 41.2072Z" fill="white"/>
<path fill-rule="evenodd" clip-rule="evenodd" d="M236.271 40.9821C236.053 41.0773 235.829 41.1597 235.602 41.229C235.319 41.3083 235.026 41.3454 234.733 41.339C234.529 41.3558 234.325 41.3316 234.13 41.2677C233.936 41.2039 233.757 41.1018 233.603 40.9674C233.474 40.8249 233.374 40.6578 233.31 40.4759C233.247 40.2941 233.221 40.1014 233.233 39.9092V36.9101H232.355V36.382H233.253V34.9038H234.84V36.382H236.208V36.9101H234.85V39.5855C234.828 39.8654 234.883 40.1461 235.008 40.3973C235.075 40.4821 235.162 40.5484 235.262 40.5902C235.362 40.6319 235.471 40.6476 235.578 40.6357C235.665 40.6357 235.788 40.6292 235.943 40.6159C236.054 40.6104 236.163 40.5958 236.271 40.5725L236.271 40.9821Z" fill="white"/>
<path fill-rule="evenodd" clip-rule="evenodd" d="M238.873 41.3737C238.559 41.3741 238.248 41.3271 237.948 41.2342C237.703 41.1651 237.468 41.066 237.248 40.9392L237.101 41.2709H236.72L236.656 39.449H237.013C237.075 39.6237 237.157 39.7904 237.258 39.9459C237.368 40.1255 237.499 40.2916 237.648 40.4408C237.804 40.5893 237.981 40.7146 238.173 40.8128C238.369 40.9128 238.585 40.9647 238.805 40.9643C239.038 40.9817 239.271 40.9207 239.467 40.7909C239.542 40.7248 239.601 40.642 239.639 40.5492C239.677 40.4563 239.692 40.3559 239.685 40.2559C239.689 40.1402 239.654 40.0264 239.586 39.9326C239.513 39.8419 239.422 39.7676 239.318 39.7143C239.184 39.6452 239.044 39.5894 238.9 39.5476C238.75 39.5023 238.563 39.4459 238.342 39.3809C238.149 39.3261 237.959 39.2604 237.773 39.1842C237.594 39.1045 237.429 38.9983 237.281 38.8693C237.134 38.7414 237.015 38.5849 236.93 38.4093C236.838 38.2087 236.793 37.9898 236.798 37.7692C236.794 37.5505 236.845 37.3343 236.946 37.1402C237.047 36.9461 237.195 36.7803 237.376 36.6577C237.823 36.3562 238.355 36.2071 238.893 36.2325C239.169 36.2302 239.443 36.2604 239.712 36.3226C239.925 36.3719 240.135 36.4376 240.338 36.5191L240.441 36.2325H240.811L240.89 37.8975H240.543C240.43 37.5584 240.228 37.2557 239.958 37.0208C239.718 36.7896 239.398 36.658 239.065 36.6526C238.856 36.6405 238.649 36.6948 238.473 36.8077C238.404 36.8566 238.348 36.922 238.311 36.9979C238.273 37.0738 238.255 37.1579 238.258 37.2425C238.252 37.3531 238.278 37.463 238.334 37.5586C238.39 37.6541 238.474 37.7309 238.573 37.7794C238.854 37.9162 239.15 38.0213 239.455 38.0926C239.926 38.1865 240.366 38.3974 240.735 38.706C240.868 38.833 240.973 38.9866 241.043 39.1569C241.112 39.3271 241.146 39.5102 241.14 39.6942C241.149 39.9373 241.097 40.1788 240.987 40.3959C240.877 40.6129 240.713 40.7983 240.511 40.9343C240.024 41.2473 239.452 41.4009 238.873 41.3737Z" fill="white"/>
<path fill-rule="evenodd" clip-rule="evenodd" d="M252.032 41.2072H249.162C249.083 41.1187 248.982 41.0042 248.858 40.8625C248.735 40.7205 248.628 40.5958 248.542 40.4841C248.242 40.774 247.892 41.0068 247.508 41.1708C247.16 41.3104 246.787 41.3812 246.412 41.3792C245.87 41.401 245.338 41.2257 244.915 40.8857C244.726 40.7301 244.576 40.5334 244.475 40.3107C244.374 40.0881 244.325 39.8452 244.332 39.6008C244.312 39.1436 244.471 38.6966 244.777 38.3558C244.936 38.1653 245.124 38.0001 245.333 37.8658C245.572 37.7113 245.821 37.5749 246.08 37.4575C245.839 37.1671 245.633 36.8494 245.467 36.5108C245.353 36.2586 245.294 35.9856 245.293 35.7092C245.291 35.4829 245.343 35.2594 245.445 35.0575C245.547 34.8556 245.696 34.6813 245.88 34.5493C246.281 34.2415 246.776 34.0804 247.282 34.0926C247.722 34.0728 248.157 34.2 248.517 34.4543C248.667 34.5635 248.789 34.7076 248.871 34.8742C248.954 35.0409 248.994 35.2251 248.99 35.4109C248.994 35.7418 248.895 36.0657 248.707 36.3376C248.451 36.666 248.131 36.9378 247.765 37.1359C248.12 37.5902 248.393 37.9341 248.586 38.1625C248.781 38.3925 249.038 38.694 249.362 39.0691C249.544 38.8073 249.698 38.5276 249.823 38.2342C249.913 38.0322 249.965 37.8152 249.977 37.5942C249.977 37.4959 249.903 37.4176 249.76 37.3575C249.561 37.282 249.356 37.2256 249.147 37.1892V36.8175H251.877V37.1885C251.654 37.2018 251.433 37.2377 251.218 37.2957C251.059 37.3539 250.916 37.4494 250.802 37.574C250.717 37.6683 250.644 37.7724 250.585 37.8841C250.498 38.0324 250.417 38.1758 250.338 38.3124C250.244 38.4774 250.142 38.6523 250.035 38.8341C249.917 39.0326 249.787 39.2235 249.645 39.4057C249.874 39.6845 250.121 39.9479 250.385 40.194C250.529 40.3317 250.688 40.4519 250.86 40.5524C251.028 40.6369 251.207 40.697 251.392 40.7307C251.603 40.7749 251.816 40.8039 252.032 40.8175L252.032 41.2072ZM248.248 35.4838C248.262 35.2412 248.188 35.0018 248.04 34.809C247.975 34.7294 247.893 34.6657 247.8 34.6229C247.706 34.5802 247.604 34.5595 247.502 34.5625C247.407 34.5584 247.312 34.5741 247.224 34.6089C247.135 34.6436 247.055 34.6964 246.988 34.764C246.922 34.8351 246.871 34.9185 246.838 35.0095C246.804 35.1005 246.789 35.1973 246.793 35.2941C246.803 35.519 246.865 35.7386 246.973 35.9359C247.135 36.2408 247.321 36.5323 247.53 36.8076C247.759 36.6558 247.946 36.4488 248.075 36.2058C248.189 35.9822 248.248 35.7348 248.248 35.4838ZM248.282 40.1672C248.008 39.8392 247.691 39.4565 247.328 39.0191C246.965 38.5837 246.628 38.1687 246.315 37.7741C246.145 37.9395 246.016 38.1428 245.94 38.3674C245.866 38.5871 245.827 38.8173 245.827 39.0492C245.819 39.2443 245.851 39.4389 245.922 39.6208C245.993 39.8027 246.101 39.9679 246.239 40.106C246.377 40.2442 246.542 40.3522 246.724 40.4233C246.905 40.4944 247.1 40.5271 247.295 40.5192C247.471 40.5231 247.646 40.4971 247.813 40.4424C247.984 40.3783 248.143 40.2852 248.282 40.1672Z" fill="white"/>
<path fill-rule="evenodd" clip-rule="evenodd" d="M261.359 36.0125C261.368 36.364 261.284 36.7116 261.117 37.0208C260.956 37.3018 260.727 37.5375 260.45 37.7059C260.141 37.8951 259.802 38.0292 259.447 38.1025C259.03 38.1878 258.604 38.2285 258.178 38.224L257.613 38.2238V40.172C257.611 40.2776 257.633 40.3822 257.678 40.4776C257.735 40.5746 257.824 40.6483 257.93 40.686C258.033 40.7213 258.139 40.7486 258.247 40.7676C258.369 40.7941 258.494 40.8136 258.619 40.826V41.2073H254.864V40.8257C254.959 40.8175 255.084 40.8025 255.24 40.7857C255.351 40.7773 255.461 40.755 255.567 40.7192C255.67 40.686 255.758 40.6191 255.819 40.5293C255.864 40.4313 255.885 40.3239 255.88 40.216V35.329C255.883 35.227 255.862 35.1256 255.82 35.0326C255.764 34.9351 255.674 34.8616 255.567 34.8259C255.45 34.7781 255.328 34.7428 255.203 34.7208C255.052 34.689 254.938 34.6692 254.864 34.6593V34.2789H258.687C259.382 34.2324 260.077 34.3802 260.694 34.7058C260.911 34.8444 261.087 35.0387 261.204 35.2685C261.321 35.4983 261.374 35.7552 261.359 36.0125ZM259.453 36.2605C259.485 35.8492 259.374 35.4396 259.138 35.1008C258.991 34.9595 258.814 34.8524 258.621 34.787C258.427 34.7216 258.221 34.6995 258.018 34.7224L257.613 34.7222V37.7652H257.818C258.256 37.7961 258.69 37.6646 259.037 37.3958C259.185 37.2483 259.299 37.0703 259.371 36.8742C259.442 36.6781 259.471 36.4686 259.453 36.2605Z" fill="white"/>
<path fill-rule="evenodd" clip-rule="evenodd" d="M267.404 41.1038C267.239 41.1743 267.069 41.2318 266.895 41.2759C266.693 41.3284 266.484 41.3547 266.275 41.354C265.97 41.3749 265.665 41.3133 265.392 41.1758C265.204 41.0599 265.066 40.878 265.005 40.6658L264.977 40.6656C264.876 40.7665 264.769 40.8613 264.657 40.9493C264.554 41.027 264.444 41.094 264.327 41.1492C264.186 41.2169 264.038 41.27 263.885 41.3077C263.69 41.3472 263.491 41.3645 263.292 41.3592C262.94 41.3682 262.596 41.2491 262.325 41.0242C262.195 40.917 262.091 40.7814 262.021 40.6276C261.951 40.4739 261.918 40.3062 261.923 40.1375C261.919 39.9541 261.949 39.7715 262.012 39.5992C262.069 39.453 262.154 39.3194 262.262 39.206C262.359 39.1012 262.473 39.0137 262.6 38.9474C262.737 38.8747 262.879 38.8108 263.024 38.7559C263.316 38.649 263.667 38.5379 264.077 38.4225C264.384 38.3422 264.685 38.2385 264.977 38.1123L264.977 37.6421C264.977 37.5605 264.97 37.4542 264.957 37.321C264.948 37.2049 264.92 37.0911 264.874 36.9842C264.828 36.8783 264.753 36.7871 264.659 36.7209C264.545 36.6442 264.41 36.6063 264.274 36.6126C264.151 36.6083 264.028 36.6293 263.914 36.6741C263.832 36.7068 263.755 36.7481 263.682 36.7974C263.702 36.8989 263.73 36.9987 263.765 37.0959C263.809 37.2201 263.832 37.3508 263.834 37.4826C263.83 37.5533 263.815 37.623 263.79 37.6891C263.766 37.7654 263.721 37.8338 263.662 37.8876C263.588 37.9515 263.503 38.0028 263.412 38.0392C263.273 38.0807 263.128 38.0988 262.984 38.0926C262.759 38.1085 262.537 38.0374 262.363 37.8941C262.296 37.8285 262.243 37.75 262.207 37.6634C262.171 37.5767 262.153 37.4837 262.154 37.3898C262.154 37.296 262.174 37.2032 262.212 37.1172C262.249 37.0312 262.304 36.9536 262.372 36.8892C262.525 36.7379 262.704 36.6159 262.9 36.5292C263.126 36.425 263.364 36.3489 263.609 36.3025C263.853 36.2513 264.102 36.2245 264.352 36.2225C264.642 36.2208 264.932 36.2392 265.22 36.2775C265.47 36.3109 265.712 36.3899 265.934 36.5108C266.138 36.6265 266.304 36.7982 266.414 37.0057C266.543 37.2684 266.605 37.5597 266.592 37.8524C266.592 38.2209 266.585 38.6571 266.57 39.1609C266.556 39.6654 266.548 39.9976 266.548 40.1576C266.543 40.2766 266.566 40.3953 266.614 40.5043C266.658 40.5888 266.73 40.6558 266.817 40.6941C266.9 40.726 266.989 40.7419 267.079 40.741C267.197 40.7455 267.305 40.7491 267.404 40.7491V41.1038ZM264.977 38.5606C264.794 38.6226 264.614 38.694 264.434 38.7743C264.278 38.8398 264.131 38.9238 263.995 39.0243C263.874 39.1162 263.777 39.2362 263.712 39.3741C263.64 39.5308 263.605 39.7018 263.609 39.8741C263.6 39.9729 263.61 40.0726 263.64 40.1673C263.67 40.2619 263.718 40.3498 263.782 40.4257C263.838 40.4819 263.905 40.5261 263.978 40.5556C264.052 40.5852 264.131 40.5994 264.21 40.5976C264.365 40.6037 264.518 40.5655 264.652 40.4876C264.767 40.414 264.87 40.3223 264.957 40.216L264.977 38.5606Z" fill="white"/>
<path fill-rule="evenodd" clip-rule="evenodd" d="M272.642 37.2572C272.645 37.495 272.564 37.7262 272.412 37.9092C272.34 37.9996 272.247 38.072 272.142 38.1206C272.037 38.1693 271.922 38.1928 271.807 38.1894C271.592 38.196 271.38 38.1328 271.203 38.0094C271.121 37.9481 271.056 37.8675 271.013 37.7746C270.97 37.6818 270.95 37.5797 270.957 37.4776C270.954 37.388 270.962 37.2985 270.982 37.2111C270.998 37.1472 271.012 37.0874 271.025 37.0325C270.857 37.0451 270.694 37.0989 270.552 37.1893C270.381 37.2899 270.232 37.4223 270.112 37.5792L270.112 40.2606C270.109 40.3581 270.127 40.4551 270.167 40.5443C270.205 40.6215 270.268 40.6833 270.347 40.7193C270.458 40.7662 270.575 40.7966 270.695 40.8093C270.857 40.8343 270.973 40.8477 271.045 40.8511V41.2074H267.779V40.8507C267.86 40.8439 267.942 40.8361 268.025 40.8244C268.097 40.8155 268.168 40.7999 268.237 40.7777C268.327 40.7533 268.405 40.694 268.452 40.6127C268.495 40.5211 268.515 40.4204 268.51 40.3193V37.4772C268.512 37.3668 268.484 37.2579 268.428 37.1626C268.377 37.0752 268.308 36.9992 268.227 36.9392C268.158 36.8955 268.083 36.8629 268.005 36.8425C267.909 36.8144 267.81 36.7965 267.71 36.7893L267.71 36.4321L270.039 36.3057L270.112 36.3794V37.0858H270.132C270.335 36.8442 270.577 36.6376 270.847 36.4744C271.084 36.3296 271.357 36.2524 271.635 36.251C271.77 36.245 271.904 36.2669 272.029 36.3154C272.155 36.3639 272.269 36.4379 272.365 36.5328C272.458 36.6285 272.53 36.7421 272.578 36.8666C272.625 36.9911 272.647 37.124 272.642 37.2572Z" fill="white"/>
<path fill-rule="evenodd" clip-rule="evenodd" d="M276.612 40.9821C276.393 41.0773 276.17 41.1597 275.942 41.229C275.659 41.3083 275.367 41.3454 275.073 41.339C274.87 41.3558 274.665 41.3316 274.471 41.2677C274.277 41.2039 274.097 41.1018 273.944 40.9674C273.814 40.8249 273.714 40.6578 273.651 40.476C273.587 40.2941 273.561 40.1014 273.574 39.9092L273.574 36.9101H272.695V36.382H273.593V34.9038H275.18V36.382H276.549V36.9101H275.191V39.5855C275.169 39.8654 275.223 40.146 275.348 40.3973C275.415 40.4821 275.503 40.5484 275.603 40.5902C275.702 40.6319 275.811 40.6476 275.918 40.6357C276.005 40.6357 276.128 40.6292 276.284 40.6159C276.394 40.6104 276.504 40.5958 276.612 40.5725V40.9821Z" fill="white"/>
<path fill-rule="evenodd" clip-rule="evenodd" d="M279.213 41.3737C278.9 41.3741 278.588 41.327 278.288 41.2342C278.044 41.1651 277.809 41.066 277.589 40.9392L277.442 41.2709H277.061L276.997 39.449H277.354C277.416 39.6237 277.498 39.7905 277.599 39.9459C277.709 40.1254 277.84 40.2915 277.989 40.4408C278.145 40.5892 278.322 40.7145 278.514 40.8128C278.709 40.9128 278.926 40.9647 279.145 40.9643C279.379 40.9817 279.612 40.9207 279.807 40.7909C279.882 40.7248 279.941 40.6421 279.979 40.5492C280.017 40.4563 280.033 40.3559 280.025 40.2559C280.03 40.1402 279.995 40.0263 279.927 39.9326C279.854 39.8419 279.762 39.7676 279.659 39.7143C279.525 39.6452 279.385 39.5894 279.24 39.5476C279.09 39.5023 278.904 39.4459 278.682 39.3809C278.489 39.326 278.299 39.2604 278.114 39.1842C277.935 39.1045 277.769 38.9983 277.622 38.8693C277.475 38.7414 277.355 38.5849 277.27 38.4093C277.178 38.2087 277.133 37.9898 277.138 37.7692C277.135 37.5505 277.186 37.3343 277.287 37.1402C277.388 36.9462 277.536 36.7803 277.717 36.6577C278.163 36.3562 278.695 36.2071 279.234 36.2325C279.509 36.2302 279.784 36.2604 280.052 36.3226C280.266 36.3718 280.475 36.4375 280.679 36.5191L280.782 36.2325H281.152L281.23 37.8975H280.884C280.77 37.5584 280.568 37.2557 280.299 37.0208C280.058 36.7895 279.739 36.6579 279.405 36.6526C279.197 36.6405 278.989 36.6948 278.813 36.8077C278.744 36.8566 278.689 36.922 278.651 36.9979C278.613 37.0738 278.596 37.1579 278.599 37.2425C278.592 37.3531 278.619 37.463 278.675 37.5586C278.731 37.6541 278.814 37.7309 278.914 37.7794C279.195 37.9162 279.491 38.0212 279.795 38.0926C280.267 38.1865 280.707 38.3974 281.075 38.706C281.208 38.8329 281.313 38.9866 281.383 39.1568C281.453 39.3271 281.486 39.5102 281.48 39.6942C281.49 39.9373 281.437 40.1788 281.327 40.3959C281.217 40.6129 281.054 40.7983 280.852 40.9343C280.365 41.2473 279.792 41.4009 279.213 41.3737Z" fill="white"/>
<path fill-rule="evenodd" clip-rule="evenodd" d="M165.973 0H171.352V1.415H169.547V5.726H167.777V1.415H165.973V0Z" fill="white"/>
<path fill-rule="evenodd" clip-rule="evenodd" d="M172.133 0H174.461L175.36 3.484L176.255 0H178.574V5.726H177.129V1.36L176.008 5.726H174.7L173.583 1.36V5.726H172.133V0Z" fill="white"/>
<g clip-path="url(#clip1_4035_68)">
<circle cx="22" cy="22" r="20" fill="white"/>
<path fill-rule="evenodd" clip-rule="evenodd" d="M21.8619 0.469238C17.537 0.468675 13.309 1.75067 9.71269 4.15309C6.11637 6.55552 3.31325 9.97046 1.65782 13.966C0.00239658 17.9616 -0.430974 22.3584 0.412516 26.6003C1.25601 30.8422 3.33847 34.7387 6.39655 37.797C9.45462 40.8553 13.351 42.9381 17.5928 43.7819C21.8346 44.6258 26.2314 44.1927 30.2271 42.5376C34.2228 40.8825 37.638 38.0797 40.0407 34.4835C42.4434 30.8874 43.7258 26.6595 43.7255 22.3346C43.7257 19.4633 43.1604 16.62 42.0617 13.9672C40.9631 11.3144 39.3526 8.90402 37.3224 6.87361C35.2922 4.84321 32.8819 3.23259 30.2291 2.13372C27.5764 1.03486 24.7332 0.469263 21.8619 0.469238ZM21.8146 40.2673C18.2775 40.2683 14.8196 39.2204 11.8781 37.2561C8.93659 35.2918 6.64367 32.4993 5.28929 29.2318C3.93491 25.9643 3.5799 22.3685 4.26917 18.8993C4.95843 15.43 6.66101 12.2431 9.16158 9.74144C11.6622 7.23984 14.8484 5.53594 18.3174 4.84524C21.7864 4.15454 25.3823 4.50806 28.6503 5.86109C31.9184 7.21412 34.7118 9.50589 36.6774 12.4466C38.6429 15.3872 39.6922 18.8448 39.6927 22.3818C39.6935 27.1243 37.8104 31.6729 34.4577 35.0271C31.1049 38.3812 26.5571 40.2662 21.8146 40.2673Z" fill="#AA2624"/>
<path fill-rule="evenodd" clip-rule="evenodd" d="M29.8868 21.6998C25.83 20.3107 22.1984 17.9025 19.3402 14.7061C18.3487 15.5935 17.5425 16.6683 16.9681 17.8686C16.3938 19.0689 16.0626 20.3709 15.9936 21.6998H29.8868Z" fill="#AA2624"/>
<path fill-rule="evenodd" clip-rule="evenodd" d="M26.0901 10.8343C28.3713 10.8335 30.5992 11.5242 32.4799 12.8152C30.5658 10.6909 28.0588 9.18933 25.2826 8.5044C22.5064 7.81946 19.5886 7.98264 16.9061 8.97285C17.6392 10.3803 18.5106 11.7112 19.5075 12.9458C21.4273 11.5718 23.7292 10.8334 26.0901 10.8343Z" fill="#AA2624"/>
<path fill-rule="evenodd" clip-rule="evenodd" d="M20.3301 13.9124C24.3691 18.4147 29.9816 21.1957 36.0105 21.6822C36.0524 21.6799 36.0941 21.6787 36.1383 21.6763C36.1131 21.1969 36.068 20.7253 35.9972 20.2615C35.6762 18.6136 34.949 17.072 33.8815 15.7762C32.8141 14.4805 31.4402 13.4716 29.8843 12.8411C28.3284 12.2105 26.6397 11.9783 24.9713 12.1654C23.303 12.3524 21.7077 12.9529 20.3301 13.9124Z" fill="#AA2624"/>
<path fill-rule="evenodd" clip-rule="evenodd" d="M20.4284 30.6203C21.8519 31.5835 23.4977 32.1675 25.2099 32.3172C26.9221 32.4669 28.6442 32.1773 30.2133 31.4757C31.7823 30.7741 33.1464 29.6838 34.1765 28.308C35.2066 26.9321 35.8687 25.3162 36.1 23.6131C36.117 23.3976 36.1329 23.1858 36.1406 22.9691L35.848 22.9685C29.9293 23.4912 24.4243 26.2229 20.4284 30.6203Z" fill="#AA2624"/>
<path fill-rule="evenodd" clip-rule="evenodd" d="M21.8619 36.6816C24.0368 36.6834 26.1833 36.1877 28.1371 35.2324C30.0909 34.2771 31.8003 32.8875 33.1345 31.1699C31.2233 32.6868 28.8737 33.5463 26.4349 33.6206C23.9961 33.6949 21.5984 32.9801 19.5985 31.5824C18.537 32.8788 17.6156 34.2838 16.8497 35.774C18.4524 36.3753 20.1502 36.6827 21.8619 36.6816Z" fill="#AA2624"/>
<path fill-rule="evenodd" clip-rule="evenodd" d="M18.6024 30.7964C17.4732 29.8113 16.5502 28.6125 15.8867 27.269C15.2231 25.9255 14.8321 24.4639 14.7362 22.9685H7.5824C7.68684 25.5629 8.49609 28.0798 9.92323 30.249C11.3504 32.4181 13.3415 34.1574 15.6827 35.2802C16.494 33.6862 17.4727 32.1831 18.6024 30.7964Z" fill="#AA2624"/>
<path fill-rule="evenodd" clip-rule="evenodd" d="M14.7257 21.6987C14.7956 20.1863 15.1671 18.7032 15.8182 17.3364C16.4693 15.9696 17.387 14.7466 18.5173 13.7394C17.4459 12.4131 16.513 10.9806 15.7334 9.46436C13.3946 10.5749 11.4011 12.2996 9.96579 14.4544C8.53046 16.6092 7.70707 19.1132 7.5835 21.6994L14.7257 21.6987Z" fill="#AA2624"/>
<path fill-rule="evenodd" clip-rule="evenodd" d="M19.4295 29.834C22.2559 26.7092 25.8249 24.348 29.8063 22.969H16.0035C16.1978 25.619 17.4287 28.0856 19.4295 29.834Z" fill="#AA2624"/>
</g>
</g>
<defs>
<clipPath id="clip0_4035_68">
<rect width="281.48" height="44.202" fill="white"/>
</clipPath>
<clipPath id="clip1_4035_68">
<rect width="44" height="44" fill="white"/>
</clipPath>
</defs>
</svg>
